<?xml version="1.0" encoding="UTF-8"?>
<svg xmlns="http://www.w3.org/2000/svg" viewBox="-2 17.75 964 924.49">
  <!-- Generated from amCharts geodata | Mercator projection -->
    <path d="M273.67,437.07L273.58,437.69L274.1,438.75L273.73,439.64L272.68,440.09L272.26,440.92L271.55,440.07L270.88,438.68L271.7,437.82L269.1,436.16L268.16,436.13L267.33,437.24L265.68,438.06L265.45,438.64L266.47,439.74L265.5,440.79L264.41,440.94L263.91,439.62L262.66,439.59L262.06,438.47L259.52,437.98L258.34,437.89L258.23,437.26L256.71,437.19L256.97,436.05L256.28,435.4L254.24,434.4L253.03,434.58L251.67,433.71L251.12,432.37L251.55,431.42L251.35,430.49L249.42,428.72L248.65,427.58L246.22,425.54L246.9,424.93L246.11,424.29L245.52,424.78L243.97,424.78L241.93,423.97L240.52,423.74L238.38,422.73L236.94,422.74L235.15,421.91L233.96,420.97L232.51,419.4L229.56,416.87L228.34,416.22L227.57,416.45L226.93,415.85L225.43,417.08L223.43,417.86L222.64,417.98L220.84,417.27L219.32,417.11L217.28,416.17L216.63,415.53L214.16,415.01L213.27,414.45L211.07,413.67L209.07,412.41L208.41,411.65L206.13,411.26L204.16,410.52L202.9,409.11L200.16,407.75L198.71,405.86L198.21,404.7L199.31,404.15L198.69,403.59L199.37,402.61L199.44,401.54L198.27,400.12L197.89,398.27L196.26,396.63L194.84,394.64L192.13,392.49L191,390.79L189.26,389.94L188.31,389.21L188.2,388.31L188.8,387.5L188.05,386.29L187.32,386.31L186.82,385.19L185.39,384.46L185.25,382.83L183.68,382.52L182.19,380.99L180.9,379.33L180.74,378.56L179.36,376.36L178.37,373.87L178.54,372.67L177,372.14L176.14,371.26L175.6,371.64L173.76,370.73L173.65,372.74L174.31,374.75L174.27,375.58L175.01,376.84L176.65,378.26L177.33,379.61L178.12,380L179.01,381.13L179.38,382.94L180.46,383.85L181.31,385.52L182.48,386.3L183.22,389.03L183.91,389.8L184.86,391.98L185.21,393.66L186.61,393.78L188.21,395.8L188.11,396.57L186.87,397.53L186.44,397.18L185.7,395.44L182.88,393.33L181.14,391.83L181.18,389.92L180.33,387.77L178.61,386.67L178.12,385.85L177.07,386.26L176.42,385.52L174.81,384.77L174.56,384.13L173.35,383.21L175.2,382.8L175.87,381.13L175.61,380.58L173.35,378.21L171.54,377.07L171.16,375.38L170.5,373.83L168.9,371.46L167.35,368L166.75,365.99L165.12,364.63L164.24,364.56L163.98,363.68L162.28,363.38L161.05,362.39L158.72,362.22L158.28,361.86L158.31,360.25L157.71,359.31L154.99,356.13L155.23,354.8L153.61,353.21L153.42,351.09L152.09,350.22L152.04,349.61L150.13,347.46L149.64,344.17L148.47,342.8L148.34,341.97L148.98,340.28L149.15,338.81L147.89,333.68L148.94,330.46L149.52,323.4L149.14,318.9L148.33,315.31L147.68,314.34L147.65,312.46L149.4,313.28L154.02,313.91L152.56,309.96L151.87,309.96L151.11,308.06L149.71,307.96L148.96,306.68L148.04,306.62L146.11,303.84L142.92,303.62L142.32,301.99L141.18,302.19L139.44,300.99L139.61,299.6L138.39,298.26L137.71,296.66L138.38,293.6L137.46,293.51L136.93,291.89L135.24,291.22L134.5,291.85L132.44,289.73L133.22,287.88L131.07,284.78L130.54,283.16L130.88,280.44L129.9,279.13L128.42,278.42L125.83,274.15L124.09,273.51L123.86,270.92L122.5,268.32L120.6,267.09L119.19,268.1L117.7,266.46L115.78,268.15L113.22,266.44L111.06,263.83L106.09,260.48L104.42,260.36L102.21,259.19L98.81,258.51L96.52,258.96L93.6,257.23L90.94,256.46L88.34,253.59L84.41,254.42L84.81,258.13L84.19,259.09L81.51,259.02L77.44,263.02L75.36,263.31L75.37,259.09L76.13,257.95L76.48,255.02L78.82,253.48L78.37,251.95L75.38,254.11L75.33,254.96L71.72,259.7L69.1,262.39L68.99,263.66L71.13,264.88L69.28,266.89L68.67,268.58L66.65,269.31L62.72,272.74L62.73,273.84L59.79,276.13L57.56,277.09L57.93,278.25L54.6,280.09L53.43,280.16L50.4,282L48.69,282.07L47.8,283.24L45.69,284.1L45.43,283.04L47.58,280.52L50.09,279.08L51.06,280.27L52.53,277.68L55.25,275.87L57.81,272.89L59.71,271.38L59.94,267.26L57.32,265.06L55.78,267.01L54.21,264.74L52.37,264.02L48.65,266.28L48.46,261.21L47.35,258.08L44.75,259.85L42.91,260.06L40.9,257.4L39.06,256.12L40.52,254.21L38.49,253.05L37.12,249.14L39.48,245.31L41.58,240.98L44.38,241.98L48.07,239.57L50.4,238.94L51.26,237.37L50.85,232.71L50.17,230.56L48.64,231.23L45.85,233.98L43.43,232.66L40.27,233.45L36.95,232.69L33.59,227.39L31.76,225.87L40.87,219.97L43.27,220.13L43.48,223.1L48.49,223.29L49.18,222L52.72,220.87L51.03,219.19L48.38,218.99L48.09,216.62L45.33,216.77L43.41,215.62L42.33,212.76L36.32,206.93L36.78,203.56L41.86,203.18L44.9,199.8L45.46,196.97L48.32,192.49L50.68,192.7L55.16,188.1L58.67,188.37L61.91,184.47L66.22,186.29L68.81,188.73L71.38,187.66L74.05,188.65L74.81,191.53L81.95,191.14L86.12,193.39L91.14,193.84L92.81,195.03L98.08,194.19L102.91,197.78L108.85,198.83L111.66,201.58L115.42,203.53L117.66,203.33L118.16,200.38L119.62,199.19L124.9,199.45L132,193.97L136.08,197.32L139.29,193.36L140.96,193.22L142.37,197.18L144.25,199.57L147.29,195.17L150.38,199.88L151.93,196.57L157.43,197.72L159.22,199.55L163.02,200.79L165.08,202.39L170.49,203.78L171.65,202.91L174.9,205.22L176.09,207.12L173.96,208.05L172.98,211.27L176.85,212.11L180.17,212.22L184.03,211.47L186.55,210.15L187.65,211.88L190.42,212.87L191.76,216.48L194.25,217.76L191.3,208.92L191.16,205.58L196.89,203.31L198.86,206.69L202.15,209.77L204.07,209.17L206.15,211.32L209.19,212.16L212.12,211.13L215.61,211.94L217.55,211.22L220.12,212.69L220.78,211.02L217.5,209.53L218.08,207.71L220.62,206.73L221.39,208.16L223.9,208.86L223.01,213.13L224.58,215.63L225.98,215.16L224.93,211.85L225.44,209.84L227.35,209.48L230.26,206.08L230.23,203.91L228.61,199.29L223.87,196.41L222.69,194.12L223.4,190.81L222.54,188.66L222.92,184.85L226.13,179.53L228.51,180.71L232.14,184.94L232.05,188.31L235.83,193.7L232.66,197.31L237.81,200.54L238.75,203.72L242.52,200.72L245.22,204.11L245.84,207.09L244.41,207.92L244.81,211.65L247.29,215.7L249.24,213.4L250.79,209.47L251.38,205.44L253.7,202.16L252.3,200.98L251.98,196.3L255.36,196.38L259.68,197.49L259.62,199.26L263.12,201.82L263.25,205.24L259.86,206.78L261.4,210.97L263.28,213.79L262.75,216.48L259.62,219.75L254.72,222.47L251.72,219.88L248.98,220.12L250.55,223.5L247.22,227.82L245.41,227.86L240.67,224.07L240.2,225.08L242.74,227.87L247.93,228.82L247.25,231.17L245.05,235.15L243.59,236.21L239.62,236.38L239.96,237.46L236.45,239.25L238.01,240.17L237.68,242.57L236.14,243.4L233.7,243.31L230.88,249.69L229.57,250.95L227.61,256.8L227.24,259.28L227.43,264.78L228.57,265.75L231.26,265.54L234,274.31L237.04,273.17L238.42,273.25L240.56,274.44L242.8,275.08L245.13,276.94L246.5,278.91L251.12,280.81L253.17,282.56L256.24,282.42L259.79,283.2L260.75,284.76L260.22,286.86L260.96,289.31L260.64,293.14L262.4,295.47L262.24,296.07L264.91,298.39L265.69,300.23L267.1,300.9L268.01,299.2L269.39,298.5L270.69,296.25L270.07,294.61L268.69,288.04L267.56,285.29L269.58,284.44L272.29,282.79L273.8,281.29L275.6,278.67L275.93,274.88L275.59,272.48L274.25,269.29L270.63,265.92L270.78,264.94L272.64,262.31L272.73,260.75L273.83,258.8L272.34,254.79L272.7,251.19L271.63,247.41L271.82,245.99L273.67,244.74L280.83,246.98L283.65,245.43L287.78,249.56L289.54,252.74L292.59,253.24L294.29,255.31L293.98,256.95L294.18,262.51L294.58,264.96L296.8,264.78L299.81,268.31L302.38,266.61L305.05,263.71L306.85,257.68L308,257.59L310.56,262.55L311.51,265.02L313.08,266.99L313.85,269.53L314.94,270.09L315.06,272.48L316.44,274.3L315.96,277.31L317.1,279.82L317.78,279.38L320.19,282.68L322.67,283.2L323.25,284.64L324.81,284.51L326.92,285.88L324.93,286.89L326.89,287.74L327.6,289.17L329.43,289.55L331.21,292.03L331.11,296L331.48,296.75L328.06,299.68L323.97,300.38L322.23,302.56L319.79,304.77L316.56,304.99L312.76,304.57L307.02,304.68L305.95,304.49L302.68,304.94L301.49,305.85L300.34,308.51L297.91,309.13L296.19,310.63L293.93,313.56L293.58,314.62L291.45,317.36L291.95,317.78L296.03,312.86L299.84,310.52L303.53,309.06L305.27,308.85L307.1,309.15L308.64,310.25L308.66,311.75L305.97,313.87L304.2,313.2L304.89,315.16L306.06,314.71L307.46,315.05L306.9,316.46L305.82,317.51L306.92,318.34L307.89,320.85L311.22,322.73L313.38,323.22L314.79,322.28L316.02,322.98L316.58,324.69L313.3,326.17L309.97,327.51L308.57,327.27L308.33,328.19L307.03,329.81L304.7,330.94L303.66,330.01L303.73,327.95L304.92,326.48L308.14,324.62L306.94,323.21L304.31,324.74L301.67,325.33L300.36,326.72L298.91,327.63L297.93,327.43L295.82,328.96L293.89,330.04L292.86,330.19L291.12,333.63L290.54,335.42L291.36,335.79L292.25,337.95L291.58,338.28L289.53,337.93L289.27,338.83L285.74,339.23L283.78,340.1L282.06,341.56L282.78,342.54L282.2,344.63L281.52,345.81L280.27,346.64L278.95,346.82L279.9,348.84L278.24,350.7L276.55,348.87L276.88,347.64L275.95,347.49L276,348.74L276.63,350.91L276.63,352.71L277.63,355.05L276.06,357.13L277.94,357.55L277.94,358.39L276.87,359.35L275.97,359.62L275.35,360.69L272.66,362.82L271.96,364.02L270.46,364.14L269.55,364.83L268.6,366.5L266.61,368.14L266.05,368.28L264.4,369.74L263.47,371.02L263.53,371.57L262.61,373.61L263.33,376.95L264.27,379.23L265.27,380.95L264.93,381.87L266.06,384.8L266.56,386.71L266.33,388.9L265.69,390.38L264.7,390.9L263.74,390.42L263.03,388.9L262.09,388.45L261.69,387.11L260.16,385.24L259.57,383.27L259.08,382.88L259.57,380.95L259.6,379.73L257.89,378L256.82,376.55L255.88,376L254.98,376.6L252.48,377.3L252.39,376.7L249.98,374.8L245.89,375.42L242.92,375.04L241.1,375.81L239.4,375.15L238.9,375.89L241.09,376.58L239.73,378.83L238.99,378.48L238,378.98L236.56,378.5L236.45,377.81L234.95,376.82L233.97,377.68L231.53,377L230.15,377.03L226.96,378.25L225.94,379.49L224.39,380.48L222.8,380.62L222.5,381.31L220.92,381.98L220.88,382.78L219.85,385.52L220.26,387.22L220.96,388.32L220.73,389.63L219.98,391.32L219.55,393.15L219.05,398.28L219.63,401.22L221.01,404.05L222.78,406.17L223.23,407.65L224.48,409.32L226.18,409.47L227.21,409.99L227.88,410.95L228.83,410.89L230.53,410.23L232.31,410.12L232.77,409.72L234.74,409.43L235.19,410.12L236.6,409.68L236.42,408.9L238.03,407.63L238.15,406.56L238.65,406.05L238.71,404.21L239.06,402.92L240.48,402.16L242.99,401.76L244.98,401.19L248.47,401.74L248.36,403.28L246.75,405.51L246.87,406.98L245.97,410.18L245.07,411.1L244.61,412.53L244.5,415.26L243.48,416.33L242.95,417.32L244.98,417.84L246.35,417.26L248.25,417.67L249.72,417.62L251.24,417.01L252.04,417.29L253.4,417.04L255.3,417.51L256.64,419.17L257.68,419.12L258.25,419.8L257.87,420.47L258.17,421.6L257.57,422.55L257.15,424.4L257.3,426.89L256.62,428.2L256.93,428.98L256.35,429.92L257.47,432.18L259.26,434.34L260.34,434.99L260.68,436.06L263.05,436.74L264.43,436.45L266.33,435.58L267.79,434.53L270.66,435.05L271.78,435.51ZM412.11,187.57L412.26,189.92L405.61,191.51L406.11,187.94ZM338.39,193.99L341.21,196.59L341.03,199.03L337.12,200.79L336.58,198.9L333.86,197.95L333.79,193.83L335.01,192.6ZM220.08,197.67L223.2,200.13L224.84,204.66L222.93,206.6L220.07,206.07L215.32,203.73L214.5,202.46L217.45,200.2L217.2,198.6ZM277.69,207.57L279.59,208.31L279.66,213.25L277.92,215.01L274.65,215.13L273.85,212.07L275.36,208.33ZM253.18,227.29L257.58,229.42L261.2,232.31L262.09,236.14L264.46,235.72L265.86,237.71L263.88,239.52L260.32,238.05L260.09,236.72L257.35,235.67L256.72,237.4L254.31,240.42L252.01,241.43L251.43,238.34L247.5,238.25L249.99,235.44L249.67,232.79L250.77,225.57L252.69,224.98ZM261.21,242.42L261.03,244.28L258.62,246.83L256.8,247.11L256.27,245.3L257.66,242.81ZM267.74,245.66L268.47,247.88L267.43,250.21L265.93,248.83L266.61,246.07ZM36.97,256.97L38.05,257.35L38.42,259.49L36.83,260.23L34.3,258.98L36.06,256.98ZM120.71,268.25L121.95,269.97L122.87,272.7L121.51,274.07ZM118.05,268.16L119.99,269.13L119.77,271.83L117.13,271.02L115.97,268.91ZM72.27,270.27L73.57,272.11L69.88,274.4L68.43,274.74L67.45,272.7L68.58,271.2L69.82,271.41ZM119.83,272.3L121.01,275.73L117.9,272.79ZM123.45,274.04L125.14,274.48L125.44,275.93L123.73,276.96ZM269.58,277.65L268.87,279.73L266.66,279.51L268.29,277.86ZM123.82,277.56L124.79,277.65L128.06,282.92L128.05,284.8L125.91,283.67L124.14,280.15L124.69,279.56ZM130.76,281.23L128.94,281.15L129.95,279.4ZM44.06,283.98L44.38,285.12L42.47,285.65L41.09,286.64L40.3,285.71L41.25,284.45L43.02,283.71ZM125.62,287.84L128.79,288.55L127.97,291.79L126.01,291.59L125.19,289.49ZM35.69,288.93L36.15,290.06L34.3,290.62L34.72,288.65ZM136.98,292.47L137.31,295.09L135.77,293.75ZM128.39,291.95L128.93,292.51L128.51,294.99L127.08,292.36ZM272.8,393.45L273.28,394.67L272.61,395.01L272,393.65ZM261.06,396.64L263.52,397.02L264.93,396.9L266.47,397.36L268.85,398.97L270.17,399.03L272.36,400.37L273.34,400.45L275.61,402.14L278.07,402.63L278.29,403.71L280.31,403.95L281.99,405.57L279.69,406.08L276.91,405.83L272.76,406.21L274.1,404.94L274.05,403.96L272.01,403.76L270.69,402.8L270.3,401.47L268.6,401.34L266.05,400.45L265.34,399.9L264.1,399.93L261.82,399.51L261.59,398.12L259.36,398.1L257.65,399.44L255.13,399.87L255.04,398.99L255.88,398.16L257.98,397.29ZM259.82,401.17L259.06,401.68L258.45,400.68L259.43,400.4ZM59.2,401.64L58.37,402.04L57.94,401.27L58.77,400.94ZM65.12,408.59L64.32,408.43L63.87,406.51L64.48,405.76L64.45,405.01L66.14,405.81L67.19,407.14ZM288.62,411.33L287.84,410.8L285.66,411.01L284.31,410.73L282.97,411.32L281.55,410.46L282.06,409.57L283.76,409.97L285.89,410.22L287.07,409.54L285.84,408.42L286.12,407.38L285.19,406.9L285.02,406.07L286.3,406.08L288.44,406.66L289.18,406.09L290.79,406.04L292.99,406.83L294.03,407.78L295.14,408.06L296.84,408.89L297.76,409.72L296.91,410.81L296.17,410.29L293.94,410.19L292.85,410.73L291.61,410.49L290.59,410.67L289.61,412.43ZM303.59,410.12L304.99,410.37L304.08,411.51L300.81,411.45L300.91,410.03ZM273.72,410.13L274.91,410.34L276.4,411.01L275.93,411.81L275.06,411.51L273.7,411.9L272.62,411.78L271.42,410.18L272.34,409.97ZM317.32,432.99L315.74,433.27L316.09,431.98L317.24,431.63ZM264.77,293.91L261.76,293.15L261.74,292.14L263.64,292.05ZM332.12,299.24L331.01,302.03L328.82,305.58L331.29,305.99L330.95,307.56L333.38,308.84L334.46,307.93L336.11,308.13L337.14,309.36L336.39,310.7L337.25,313.03L336.81,314.27L338.79,313.84L338.2,315.33L339.59,315.74L338.48,319.15L337.02,319.15L337.12,318.07L335.54,318.37L336.35,316.38L333.72,316.39L332.49,318.27L331.23,318.42L332.82,316.14L330.08,315.26L328.13,315.65L324.44,315.24L322.35,315.66L321.7,314.49L323.44,312.66L323.42,311.56L325.29,307.71L326.76,303.89L328.67,300.46L330.6,299.21ZM139.43,302.39L142.13,303.67L145.38,304.51L147.62,308.18L149.34,309.02L150.67,311.62L150.41,312.62L147.5,311.56L144.46,309.56L144.44,308.8L142.54,308.22L142.18,306.34L141.03,306.32L138.92,303.97ZM315.35,309.5L314.08,309.61L310.49,308.3L308.98,306.07L312.38,307.04L315.15,308.78ZM309.78,319.87L311.65,320.15L314.23,319.9L312.32,321.77L310.29,320.89ZM317.57,321.61L317.85,322.78L318.74,321.98L318.65,320.99L320.36,321.16L318.97,323.1L316.58,323.41L316.01,322L317.68,318.7L319.12,318.81L318.46,321.12ZM286.86,340.04L287.1,340.55L284.82,341.39L283.8,340.46ZM272.43,391.96L272.68,392.93L271.88,393.45L271.2,392.08L271.91,390.94ZM398.13,19.75L410.81,26.85L414.75,35.98L422.61,41.93L412.94,53.76L423.1,52.46L423.61,59.51L434.06,64.33L438.52,56.94L447.49,60.36L449.26,64.44L441.32,75.83L435.3,78.95L435.02,84.94L428.19,84.01L426.3,91.01L428.58,92.81L429.13,100.51L424.12,108.76L424.37,117.17L426.05,123.94L431.1,125.8L430.64,130.98L424.15,129.7L421.66,133.35L422.48,136.53L426.39,137.37L427.98,142.45L428.2,148.07L425.37,147.18L428.73,155.73L428.35,157.66L423.65,159.36L425.69,161.9L425.31,165.27L420.84,167.35L421.24,170.57L420.55,177.66L415.82,174.34L414.22,174.88L421.3,181.36L421.99,183.14L422.61,190.94L417.79,191.54L416.56,190.71L414.99,185.9L411.58,182.7L411.35,185.59L408.75,187.51L406.16,187.16L403.89,191.33L405.29,191.93L408.67,191.34L409.56,193.36L411.92,192.32L418.2,194.2L418.43,196L409.76,204.91L402,207.85L400.35,207.75L397.39,209.55L394.3,207.22L393.93,210.54L391.58,212.62L389.06,218.82L387.65,220.77L382.99,224.75L379.32,226.29L373.44,226.53L374.46,227.91L371.59,230.61L372.85,233.33L371.69,235.47L371.87,237.93L367.59,244.76L367.14,247.16L367.71,248.83L366.88,250.64L366.09,254.89L364.92,257.25L364.48,259.41L362.49,259.43L358.99,257.95L358.43,256.24L357.21,255.72L357.3,253.08L355,254.62L352.54,254.55L349.54,252.08L348.56,250.34L347.86,246.7L345.82,245.32L345.76,243.25L342.75,238.43L342.8,236.85L341.08,233.72L340.64,229.1L336.97,220.91L338.56,218.14L336.31,216.03L337.55,212.99L337.13,211.14L338.56,205.58L343.34,204.63L345.33,195.59L340.65,194.63L335.96,191.77L335.56,188.57L340.25,189.65L342.6,191.63L343.65,187.34L338.35,184.52L337.4,181.77L334.16,184.07L331.75,182.5L332.49,177.74L331.73,174.74L334.03,170.99L331.55,169.76L332.54,167.42L330.39,164.65L330.85,161.44L328.78,158.3L329.99,155.26L323.72,146.43L323.96,143.19L316.33,137.8L310.83,136.01L301.8,140.14L298.27,139.06L295.01,136.1L295.33,132.05L291.22,129.92L291.03,126.28L296.06,126.04L298.31,123.81L302.79,123.64L302.16,120.08L295.06,122.73L285.82,113.53L286.94,109.44L296.02,104.64L300.05,101.02L304.09,100.8L307.22,88.01L301.75,86.84L301.34,81.54L312.02,68.28L316.17,69.55L316.79,58.56L323.42,51.99L334.06,46.9L339.26,47.49L344.28,55.78L347.48,54.31L349.7,45.81L359.22,57.03L362.03,46.56L356.06,34.37L364.81,27.64L379.13,22.31ZM294.48,32.78L310.29,37.37L316.06,44.56L314.2,52.95L307.8,58.8L305.38,66.91L292.95,81.78L289.63,91.63L284.55,95.19L279.31,96.66L276.65,102.56L281.51,106.47L277.69,115.92L271.97,116.73L271.8,122.09L268.42,126.48L271.23,128.63L271.24,133.37L264.83,137.84L263.54,134.04L256.31,134.72L252.96,136.4L241.15,134.28L241.33,130.41L244.27,127.13L248.34,125.98L245.08,119.6L247.95,117.42L246.53,113.76L248.51,105.78L255.16,103L253.09,93.86L249.54,90.37L249.85,83.03L256.74,84.46L266.53,79.68L257.6,76.64L252.51,79.72L242.88,75.13L240.14,68.87L242.72,62.33L238.69,56.12L249.12,50.15L253.61,44.92L261.01,41.79L266.97,34.66L273.39,35.86L278.01,32.29ZM234.67,68.65L238.29,78.62L246.2,82.19L247.62,93.12L252,95.07L252.56,99.72L247.96,104.07L243.22,113.55L238.36,114.11L232.86,110.97L226.39,98.55L225.87,93.25L221.94,85.92L225.03,81.81L223.65,77.02L225.95,71.83ZM203.45,97.66L214.37,108.38L215.56,117.87L211.77,117.43L210.47,113.54L206.05,111.21L203.95,105.85L198.57,102.2L198.97,98.07ZM223.32,108.81L226.97,111.55L226.43,116.14L221.36,118.51L217.99,110.44L218.1,105.37ZM186.82,107.09L188.29,111.66L178.27,110.72L185.58,106.02ZM185.45,114.71L187.28,116.59L186.14,122.03L181.46,124.24L178.23,121.96L178.09,117.28ZM225.38,118.69L231.2,119.34L230.61,122.64L224.03,122.53ZM170.65,122.81L171.67,125.19L170.08,132.91L161.69,137.33L160.23,141.35L154.91,139.42L152.6,137.27L155.7,134.86L162.43,124.71L168.44,121.97ZM227.69,128.86L232.76,133.01L236.52,132.11L237.72,134.9L241.91,136.44L239.33,139.21L244.8,145.09L247.31,143.96L250.48,145.19L256.18,141.78L260.92,141.65L267.57,145.75L267.98,151.68L265.93,154.71L261.84,155.76L257.25,154.67L254.87,155.44L244.21,155.58L240.41,155.04L234.77,152.57L233.52,146.46L234.17,141.48L231.76,135.85L225.94,136.86L222.29,131.85L221.98,128.71ZM190.97,139.06L194.31,141.13L196.28,139.13L198.72,142.58L197.7,148.47L194.26,151.2L189.78,149.78L184.16,154.13L179.95,156.35L177.3,156.22L174.8,149.55L171.39,150.78L166.4,147.63L169.04,138.98L171.79,134.9L175.48,134.74L179.47,137.56L183.86,144.7L189.1,145.15L189.48,143.08L185.95,135.14L188.43,131.19L190.75,131.45ZM219.4,134.23L220.24,144.66L219.2,149.25L212.71,150.37L211.43,146.21L206.56,145.07L209.52,139.89L207.63,136.63L212.3,132.89ZM206.86,138.84L204.49,142.38L201.73,137.78L205.07,136.33ZM230.53,149.92L230.54,153.61L227.47,154.1L222.49,149.43L224.88,144.91L228.19,144.22ZM432,146.2L433.1,150.53L430.21,150.44ZM160.7,159.17L166.63,158.18L171.97,164.08L172.14,165.77L162.77,172.68L161.58,175.56L159.52,176.85L158.35,182.91L151.44,186.09L149.31,181.46L144.63,177.51L146.7,173.54L147.1,169.13L149.87,162.66L147.48,157.03L156.49,155.22ZM230.91,158.7L234.07,160.7L239.05,161.7L234.35,172.06L231.09,171.63L229.23,178.45L226.15,178.46L225.21,171.81L224.98,163.36L226.74,160.03ZM213.33,160.96L215.58,163.01L219.78,161.52L221.33,163.63L219.21,167.2L221.19,173.11L222.36,180.12L216.9,184.61L215.55,184.07L211.75,177.38L208.74,175.96L206.1,171.79L208.21,169.31L209.73,172.12L212.04,171.88L212.58,168.73L209.46,165.85L210.89,162.31ZM249.4,186.75L253.89,186.34L254.13,181.85L250.9,178.81L252.42,175.02L251.61,171.87L253.28,166.74L259.57,163.03L262.92,163.93L265.93,172.13L264.16,176.87L270.79,174.9L272.66,172.32L275.47,172.58L279.22,174.49L280.26,177.83L283.43,181.1L288.96,182.82L293.47,188.37L297.71,190.96L300.36,194.83L302.17,200.57L299.33,202.42L298.57,206.02L301.25,207.65L303.4,210.28L307.93,211.32L309.31,214.57L314.75,216.83L316.53,219.34L314.69,223.41L312.91,225.99L311.03,226.61L310.93,229.33L307.56,229.01L305.6,225.19L305.85,223.59L302.73,221.8L300.84,223.42L297.98,224.05L300.52,227L301.71,229.5L305.93,232.39L306.64,236.22L307.52,236.1L307.96,240.69L306.48,240.69L305.96,243.92L304.06,242.25L299.53,241.7L303.25,246.3L303.32,248.77L300.16,247.16L295.78,245.71L294.55,243.74L292.7,243.63L289.99,242L284.15,233.68L281.3,232.15L279.82,233.47L275.4,234.79L272.56,234.02L271.53,232.47L271.74,230.46L273.47,229.05L273.8,227.19L277.79,228.64L283.84,226.62L281.51,222.73L285.24,218.8L287.41,215.21L284.46,208.08L280.94,204.87L280.22,202.84L276.26,204.98L277.9,200.32L273.09,196.29L272.74,193.76L268.52,195.91L263.74,194.38L260.96,196.33L258.42,195.06L256.37,195.39L249.81,193.96L249,191.94L245.6,193.12L243.07,190.96L241.69,186.55L245.23,187.5L245.67,185.39L242.45,184.73L240.41,183.02L239.93,179.14L241.97,169.2L246.08,163.09L248.62,162.03L253.04,162.28L248.99,171L250.57,180.66L253.27,184.18ZM266.96,163.3L271.24,163.64L274.12,165.2L276.56,169.09L276.27,171.45L272.44,170.77L268,172.04L266.18,167.77L264.47,166.32L264.4,163.11ZM199.47,170.31L194.88,165.39L198.63,162.69L201.11,166.57ZM174.67,173.2L177.33,172.59L179.32,169.96L183.28,172.42L190.14,174.33L191.44,180.83L193.85,179.6L192.81,177.4L191.36,168.86L192.75,166.8L196.05,168.03L198.89,171.75L199.38,175.08L201.73,183.51L201.15,186.25L202.79,189.04L210.74,194.86L210.84,197.3L207.38,196.32L205.55,198.45L208.07,199.65L208.38,202.53L204.09,204.13L199.95,202.1L196.96,201.5L195.58,199.41L193.49,202.69L189.48,204.49L183.17,206.08L178.33,206.43L177.02,203.91L176.82,201.25L172.91,200.73L169.3,199.52L167.72,196.61L167.64,194.31L174.42,192.64L179.63,193.33L181.03,191.57L176.65,189.62L170.69,190.46L166.43,190.11L164.63,188.02L165.83,185.8L163.02,181.38L162.81,178.82L164.76,176.41L164.33,174.02L166.53,171.36L174.3,166.39L175.71,171.09Z" fill="#dadada" stroke="#fff" stroke-width="0.5" id="northAmerica" data-name="North America"/>
    <path d="M960,503.95L959.33,504.72L959.81,505.55L957.35,505.98L956.81,505.23L958.8,504.17ZM955.41,507.3L956.24,508.08L956.45,509.28L954.26,509.77L952.86,509.27L952.7,508.67L953.65,507.55ZM917.49,515.1L918.5,515.5L920.51,516.88L921.77,518.31L923.48,519.37L925.18,520.67L924.73,521.49L922.92,520.29L920.65,519.05L918.55,517.06L917.79,516.06ZM941.97,559.66L943.58,560.08L944.85,560.8L945.45,561.89L945.04,562.52L946.14,564.29L945.93,566.06L947.47,566.56L947.9,564.84L949,566.44L949.62,568.75L951.39,569.57L952.9,569.92L954.69,568.44L956.1,568.91L955.38,571.82L954.6,572.4L954.57,573.84L953.09,573.63L951.88,574.62L952.29,575.68L951.58,577.36L949.29,581.07L947.49,582.49L947.11,581.8L945.69,581.34L947.1,578.98L947.34,577.82L946.69,576.64L943.82,575.11L943.58,573.83L945.59,572.62L945.91,570.71L946.47,569.29L945.94,568.09L946.09,566.4L945.27,566.39L945.19,564.76L943.85,563.85L941.64,560.66ZM846.92,562.41L846.53,563.52L844.68,563.38L844.37,562.44L846.22,561.93ZM941.52,580.98L941.95,581.32L943.3,580.28L944.81,580.39L944.25,582.11L944.75,582.95L942.79,585.74L941.92,587.41L940.58,588.44L941.12,590.77L939.69,590.54L937.18,591.68L936.3,595.06L935.2,597.51L932.5,600.84L929.02,601.05L928.5,600.11L927.15,599.46L924.62,599.48L924.62,596.97L925.85,594.77L927.43,593.39L928.98,591.47L930.15,591.14L932.43,589.66L934.14,587.89L935.31,587.23L936.69,585.55L937.3,583.14L938.7,581.89L939.04,580.13L940.38,578.62L941.3,579.78ZM866.18,579.34L867.42,579.51L870.18,580.9L871.97,580.29L873.21,580.32L874.58,579.54L875.45,580.13L875.47,584.02L874.47,585.94L874.62,588.07L873.09,587.11L871.66,589.74L869.32,588.87L867.97,587.23L867.38,585.84L867.3,583.95L866.07,581.8L865.72,580.25ZM927.88,601.4L928.64,602.86L927.01,603.15ZM882.65,467.42L885.81,469.35L888.33,471.6L888.06,472.7L887.15,472.25L886.93,470.91L885.85,469.6L885.26,469.46L882.58,467.66ZM855.94,484.67L855.93,478.71L855.63,478.26L855.93,477.2L855.93,473.7L855.93,467.21L856.49,467.26L859.23,468.47L861.08,469.11L862.69,469.4L864.04,470.34L865.27,470.45L866.9,471.86L867.56,471.95L868.71,473.12L868.94,474.86L870.41,475.25L872.09,476.06L873,476.14L874.14,477.12L874.25,478.05L872.32,478.21L871.9,478.77L872.51,479.98L873.93,481.32L875,481.93L875.32,483.14L876.22,484.49L877.99,484.54L877.88,485.44L879.36,486.52L879.67,487.08L881.78,487.75L881.29,488.78L880.05,488.61L879.34,488.01L875.69,487.55L874.05,487.24L871.19,484.41L869.42,481.86L866.6,481.12L865.36,480.48L862.97,482.19L861.59,482.49L862.38,483.81L862.31,484.24L860.39,485.23L859.28,484.8L856.36,484.94ZM885.11,471.72L886.41,471.83L886.4,472.88L885.37,473.61L885.71,474.55L884.97,475.11L884.04,475.08L883.28,476.06L881.14,477.02L879.07,477.06L878.35,476.48L877.67,476.62L875.74,475.65L875.59,475.06L877.33,474.89L877.99,475.13L880.8,475.03L882.54,474.73L883.54,473.49L884.46,473.28L884.14,471.85ZM895.89,478.12L895.25,478.59L894.25,478.21L893.87,477.1L892.75,476.2L892.64,475.06L893.33,475.04L894.58,476.66L895.53,477.3ZM906.34,483.09L903.85,481.76L902.93,481L903.29,480.59L904.29,481.39L906.25,482.53ZM908.66,482.49L909.33,483.3L910.02,485.2L909,484.77L908.24,482.65ZM906,485.08L906.59,485.52L907.61,485.48L908.33,485.94L908.4,486.86L906.28,486.49L905.66,485.78ZM911.24,488.1L912.28,488.28L912.33,489.29L910.77,488.59ZM861.81,492.36L861.63,493.31L862.4,494.23L862.9,496.43L862.8,497.25L863.35,498.92L863.9,499.23L865.26,498.59L865.73,499.31L867.43,500.55L867.39,502.03L867.89,503.63L867.8,504.61L869.07,506.46L869.67,508.03L869.42,509.82L870.22,510.61L870.13,511.42L870.62,512.09L872.37,512.98L873.12,512.94L874.44,514.33L876.69,515.52L876.49,516.35L877.88,517.9L879.21,521.68L880.2,520.88L881.44,522.02L882.04,522.07L882.25,524.63L884,526.24L885.07,526.79L885.68,527.95L886.55,528.55L887.08,529.73L887.77,530.41L888.44,531.98L888.22,532.99L888.31,535.65L889.53,538.8L889.61,540.67L888.93,542L888.73,543.84L888.08,545.91L887.85,548.63L886.83,550.54L886.59,551.78L885.77,552.79L884.83,553.24L883.96,554.67L883.28,556.85L882.56,557.71L881.84,560.57L880.52,562.72L879.89,566.07L879.82,568.36L878.13,569.28L875.37,569.38L873.06,570.69L871.62,572.2L869.16,573.02L868.78,572.21L865.77,570.66L862.77,572.74L860.3,571.48L857.93,570.87L857.13,571.18L856.03,570.21L855.01,570.04L852.76,567.41L852.95,565.46L852.13,563.59L850.77,562.25L848.49,561.99L849.36,560.07L849.31,559.22L848.24,557.3L847.18,560.46L845.02,560.77L845.37,559.72L846.38,559.71L846.65,557.28L847.82,555.41L847.61,554.2L846.51,554.17L845.97,555.57L843.82,556.85L841.73,559.8L840.49,556.46L839.44,554.61L838.14,554.08L837.6,552.76L837.96,552.13L836.14,550.97L835.23,550.98L834.02,550.26L832.57,550.42L831.26,549.44L829.72,548.82L828.75,549.15L827.01,549.08L823.86,549.46L821.51,550.61L819.52,551.23L815.78,551.33L812.69,553.19L811,553.97L809.73,556.23L808.55,556.72L807.41,556.41L805.74,556.73L805.5,556.35L803.75,556.2L801.12,556.64L799.61,556.68L798.53,557.94L797.05,558.3L795.03,559.95L793.55,560.31L790.71,559.95L789.3,559.33L788.6,558.45L786.69,557.58L787.15,555.61L788.04,555.25L788.49,554.17L788.53,549.44L787.14,546.67L786.65,544.84L786.56,542.43L785.43,539.72L784.44,538.32L784.08,536.11L782.88,533.75L783.61,533.08L782.9,532.38L782.77,530.98L784.57,532.95L784.57,531.65L783.12,529.07L782.45,527.48L782.81,525.43L783.35,524.51L783.45,523.05L783.15,522.25L783.89,520.24L784.44,521.34L785.01,521.39L785.61,520.24L786.29,519.65L787.88,518.95L789.36,517.63L791.22,516.56L793.08,516.75L795.2,515.76L796.67,515.44L797.61,514.68L798.9,514.81L800.52,514.44L802.34,513.75L803.98,512.17L804.89,510.4L805.97,508.97L805.76,507.14L807.25,505.67L807.92,504.69L808.38,505.88L809.4,507.62L810.07,505.89L809.31,504.84L812.21,503.79L811.68,502.81L812.9,501.16L813.98,500.56L813.81,499.92L815.15,499.02L816.06,499.32L816.3,498.27L817.52,498.4L818.41,497.25L820.46,498.49L821.87,500.03L825.22,500.53L826.01,500.13L825.01,499.04L825.89,497.9L826.24,496.78L827.36,496.04L827.12,495.1L827.73,494.36L829.06,493.91L829.46,493L830.5,493.24L832.99,493.14L833.56,492.78L833.82,491.14L834.73,490.99L835.16,491.68L837.08,492.03L837.97,492.5L839.28,492.44L840.58,493.09L842.1,492.23L842.88,493.64L844.11,492.37L845.19,493.44L844.1,494.62L844.25,495.22L842.47,496.05L842.64,497.44L842.36,498.38L841.08,500.04L841.42,500.71L843.21,501.83L844.76,503.19L845.34,503.14L847.21,504.13L848.65,505.47L850.69,505.98L851.33,507.18L853.43,508.22L854.7,508L855.55,507.42L856.58,505.27L857.1,503.67L857.2,502.38L857.67,500.87L857.39,499.25L857.59,498.38L857.26,497.4L857.72,495.92L857.81,493.82L858.54,492.2L859.12,489.62L859.88,488.97L860.9,490.6L860.99,492ZM828.32,490.78L830.05,490.28L830.77,490.95L829.2,492.28L828.39,491.78ZM844.57,497.42L845.05,498.76L843.64,498.59L843.8,497.59ZM924.66,500.23L924.83,501.15L925.68,501.08L925.87,502.05L924.87,502.47L924.35,501.83L924.07,500.3ZM926.43,503.74L927.56,504.73L926.53,505.02Z" fill="#dadada" stroke="#fff" stroke-width="0.5" id="oceania" data-name="Oceania"/>
    <path d="M320.71,837.86L318.45,847.77L308.62,844.42L304.05,838.5L313.28,838.32L316.42,830.75L320.78,830.58ZM55.86,829.55L48.36,827.99L42.06,822.38L44.65,814L48.95,816.46L54.18,823.56ZM292.44,827.63L288.58,824.17L291.88,816.22L300.06,809.17L302.06,809.45L295.33,820.8ZM359.41,815.21L363.41,815.32L365.43,824.65L363.93,835.45L348.83,842.68L347.27,845.01L335.57,846.45L337.38,835.41L340.54,834.66L345.76,824.68L344.71,821.84L346.08,812.41L349.12,805.06L355.13,801.72L358.59,802.94L363.18,808.17L362.81,812.31ZM158.52,757.71L159.27,759.95L157.17,763.36L152.38,763.41L153,759.72L151.7,757.01ZM143.12,753.3L146.68,758.42L147.01,762.09L140.23,755.45ZM281.72,751.57L281.13,756.34L277.6,753.73L278.99,749.03ZM236.9,752.33L235.55,747.27L237.85,747.15ZM218.42,741.04L221.68,740.51L225.04,742.39L223.86,746.86L217.58,746.59L212.81,744.16L207.29,742.97L207.66,741.67L217.03,739.77ZM283.45,730.43L282.12,732.77L276.86,734.48L276,732.91L279.98,730.22ZM280.03,723.29L280.4,726.8L278.06,726.15ZM293.2,719.2L294.89,722.18L297.77,732.21L298.02,740.27L295.44,746.47L287.02,747.68L285.1,745.35L290.38,742.2L286.9,738.91L282.93,743.11L279.06,740.75L279.22,738.51L282.17,736.56L286.34,736.6L290.15,733.26L290.5,729.64L292.46,728.24L288.39,725.16L288.35,717.34L292.22,716.22ZM298.7,706.81L297.12,708.61L295.78,706.31L297.77,702.19L299.5,704.54ZM0,940.25L0,920.02L22.12,925.28L45.51,935.68L53.56,940.25L0,940.25ZM61.13,940.25L61.37,933L43.82,924.89L40.13,905.9L33.19,906.03L28.89,897.34L15.82,885L21.81,883.87L30.89,892.26L45.04,894.54L54.81,899.55L59.52,890.02L65.44,886.75L71.97,875.58L67.42,865.58L69.45,861.07L61.25,854.18L62.59,851.44L85.01,846.97L78.47,838L84.49,833.57L84.86,829.08L74.42,821.25L66.11,817.34L62.75,812.82L67.42,809.64L65.76,806.93L60.62,807.03L57.33,801.64L58.1,794L67.16,793.63L70.77,797.13L75.42,797.26L80.75,801.87L90.75,792.94L91.33,789.18L87.09,785.6L89.65,781.8L97.14,775.95L100.45,775.18L102.65,777.32L107.49,772.25L113.02,770.82L115.87,771.48L119.03,766.88L124.07,768.52L127.87,767.65L133.89,768.93L139.03,767.17L149.63,767.72L160.86,766.52L164.42,763.79L173.05,764.52L173.89,759.95L177.31,760.92L176.18,769.85L182.14,767.91L181.85,762.69L185.85,763.65L185.87,767.09L182.77,771.42L188.61,771.96L195.68,773.62L200.26,771.23L208.78,771.36L210.56,774.45L217.18,772.01L210,764.83L208.76,760.29L205.96,758.94L206.9,756.39L210.71,757.73L213.92,757.37L213.28,754.38L206.2,753.62L206.91,750.55L218.63,750.97L223.59,753.51L228.68,753.55L234.02,752.3L237.54,753.6L239.21,750.46L244.81,749.38L244.22,752.77L247.9,753.93L250.72,752.58L253.38,755.31L260.84,758.68L263.18,757.55L263.3,753.56L265.49,750.16L267.94,751.49L270.91,755.82L275.07,754.92L274.31,758.3L279.22,756.6L282.68,757.18L285.52,754.8L296.48,751.63L299.55,749.16L301.79,742.58L300.11,737.76L298.96,728.72L297.59,725.55L296.78,721.03L300.34,720.88L301.4,718.98L300.29,716.75L301.88,712.22L300.93,710.68L302.12,707.17L299.77,706.53L300.02,704.31L303.01,700.89L304.62,701L305.02,697.74L309.16,693.95L309.23,691.55L313.13,688.88L315.65,687.94L317.7,684.67L321.31,683.13L323.01,681.52L326.96,679.58L327.95,680.45L327.95,680.45L324.63,682.79L322.95,686.6L320.1,686.86L317.17,690.3L315.37,690.63L314.28,692.52L313.85,695.8L315,698.8L309.99,698.68L309.13,701.19L307.5,702.22L307.15,705.65L305.48,705.78L304.96,711.44L306.94,715.37L311.08,716.38L310.78,718.09L313.47,722.19L314.77,726.34L314.77,732.58L317.29,734.76L316.76,738.08L318.08,742.42L318.97,750.73L316.25,754.98L317.66,756.35L317.3,764.75L314.06,765.03L309.53,770.09L311.03,774.76L303.01,780.84L295.19,784.61L293.08,788.08L288.54,789.22L279.28,787.24L274.16,787.79L276.67,795.41L278.97,797.84L285.73,799.28L284.66,803.1L280.5,806.74L265.06,801.3L262.82,802.99L273.51,810.13L272.35,814.32L265.89,815.37L258.01,809.1L257.97,814.71L266.26,821.63L276,822.45L275.85,831L279.37,845.32L285.25,847.25L292.7,846.22L307.33,857.81L308.97,864.23L304.23,870.26L312.7,877.16L315.76,894.83L321.29,897.55L327.06,883.72L336.04,870.6L351.04,864.66L363.55,871.97L369.51,853.81L376.61,846.66L380.78,849.74L385.79,842.8L401.79,835.14L415.36,833.43L412.64,828.87L400.13,826.44L399.16,820.13L392.02,821.06L383.36,814.71L383.52,810.58L389.13,797.25L394.5,794.03L402.84,784.83L410.51,780.22L415.28,778.14L428.02,775.7L433.87,763.32L438.21,764.05L438,759.53L435.95,756.65L438.41,751.55L441.81,751.79L441.87,748.25L444.78,748.72L449.34,745.4L451.13,737.99L453.63,733.61L455.38,734.82L456.94,739L459.43,737.93L459,732.9L464.17,731.05L465.1,732.22L464.13,736.21L472.5,736.04L477.61,736.27L478.55,739.34L482.23,735.05L486.96,732.57L493.64,730.59L502.73,729.14L504.38,726.84L507.25,729.41L511.2,731.49L514.48,727.07L516.86,728.1L522.15,727.94L528.33,729.67L531.19,727.7L531.37,732.59L536.19,732.11L537.88,727.43L541.28,731.84L543.48,728.58L546.02,732.51L549.26,733.69L552.55,732.66L560.01,727.75L563.68,727.17L566.99,725.4L567.97,722.5L566.85,718.34L568.32,715.48L571.18,715.58L573.93,722.59L580.16,723.22L583.62,725.45L585.88,720.98L586.3,717.54L589.69,714.65L593.09,713.03L594.19,711.38L599.2,709.82L599.97,708.87L605.65,707.49L609.73,709.05L609.9,705.02L611.33,703.14L614.95,704.56L614.22,699.79L618.36,696.98L623.13,695.92L626.53,696.3L628.56,697.37L632.49,700.92L630.54,702.04L631.71,703.92L633.67,703.63L636.63,705.11L638,706.88L641.29,706.19L647.17,708.02L649.86,707.04L662.21,709.72L665.11,708.69L666.62,713.84L665.43,715.84L665.68,719.51L663.75,720.58L664.22,724.36L661.81,724.13L659.38,727.54L661.18,728.73L664.67,728.8L663.66,733.68L661.43,736.62L659.82,741.82L658.38,750.2L661.26,751.45L662.45,746.3L665.48,745.06L670.07,738.58L671.75,731.01L674.03,728.51L674.19,726.15L677.18,723.41L681.13,724.57L682.38,722.12L687.51,718.3L689.94,712.5L691.43,711.36L698.71,708.31L702.14,707.7L705.29,704.32L708.56,704.64L714.61,702.1L719.2,702.33L725.53,700.21L730.57,701.43L732.91,700.17L734.78,701.04L742.02,699.94L744.99,701.15L749.04,699.21L750.6,696.53L753.8,695.97L757.2,696.77L768.42,701.09L771.9,702.91L774.99,700.32L775.75,697.35L781.6,695.54L783.23,696.39L784.9,699.23L787.49,700.57L787.4,703.73L783.98,704.99L784.07,706.57L791.24,703.86L795.04,704.1L797.69,706.08L803.97,704.15L805.82,702.58L810.58,700.88L812.26,701.56L815.64,699.25L817.77,700.14L820.11,703.88L824.63,703.82L825.98,699.95L829.2,698.11L831.55,698.4L835.85,697.38L839.92,699.03L840.94,697.68L843.18,698.78L847.34,699.53L853.07,701.6L858.59,702.22L861.04,703.54L862.53,702.7L865.66,704.5L863.85,709.05L869.27,707.85L871.54,710.25L872.25,713.15L875.88,713.86L882.85,713.27L884.17,715.52L888.22,716.72L891.2,713.51L894.72,717.97L899.95,720.1L901.75,719.34L906.09,721.71L907.23,725.2L909.43,727.89L910.47,731.98L913.8,727.79L915.6,730.31L918.41,729.43L924.34,730.66L926.85,731.84L928.46,734.9L933.77,738.64L932.88,748.21L932.12,751.12L926.98,753.77L919.4,760.33L920.81,765.91L915.11,765.99L913.42,771.77L911.15,772.3L914.17,779.01L914.03,789.14L918.48,804.99L923.22,810.35L919.03,812.39L907.95,820.68L908.11,839.15L909.09,855.45L914.19,864.17L925.95,886.13L928.29,895.3L938.45,901.95L958.41,916.12L960,920.02L960,940.25L960,940.25Z" fill="#dadada" stroke="#fff" stroke-width="0.5" id="antarctica" data-name="Antarctica"/>
    <path d="M272.26,440.92L272.68,440.09L273.73,439.64L274.1,438.75L273.58,437.69L273.67,437.07L275.06,438.6L274.97,437.17L276.59,436.18L276.97,435.43L278.29,434.93L278.21,432.91L278.81,431.79L280.41,430.43L281.45,430.76L282.51,429.8L284.5,429.93L286.07,428.79L287.27,428.31L287.64,427.5L288.76,426.86L289.97,427.1L290.3,427.88L289.36,428.78L288.35,429.02L288.14,429.6L289.08,431.66L287.7,433.94L288.64,435.24L288.83,435.95L289.87,435.81L290.44,435.21L290.53,434.24L289.64,432.73L289.21,431.33L289.41,430.83L292.71,429.72L292.57,428.32L293.32,427.52L294.32,429.43L296.46,429.56L297.6,430.29L298.04,431.9L299.01,432.16L301.36,431.79L303.34,431.73L304.4,432.75L306.32,433.25L307.07,433.18L309.67,431.64L310.68,431.7L312.79,431.41L312.42,432.31L313.29,432.97L313.81,434.03L314.35,433.48L317.89,435.17L317.19,435.89L316.52,437.74L317.86,437.25L319.09,437.15L320.05,437.41L322.13,438.64L323.66,440.07L324.05,441.43L325.38,442.11L328.08,444.24L330.83,444.76L331.12,444.32L333.78,444.25L336.41,444.8L337.45,445.39L338.94,445.76L340.56,447.05L342.22,448.96L343.41,449.32L343.86,451.49L344.91,454.56L345.44,455.37L346.78,455.82L346.94,457.15L345.88,458.02L344.49,459.79L343.25,460.47L342.13,462.28L341.47,464.48L343.21,463.51L344.22,463.22L344.83,464.94L345.59,465.62L346.67,465.13L347.41,465.38L348.5,464.87L349.36,465.13L350.11,464.21L350.81,464.3L350.8,463.3L351.69,462.21L353.61,461.92L355.17,462.33L355.69,462.83L356.75,463L358.28,463.84L359.8,464.16L360.93,464.9L361.84,467.01L362.85,467.14L365.5,466.82L367.33,467.69L368.33,467.57L369.82,468.08L372.07,467.7L373.43,467.88L377.4,470.17L378.54,471.5L380.87,473.36L382.42,473.86L384.05,473.74L385.2,473.94L386.04,475.11L386.7,477.33L387.19,479.74L387.11,481.57L386.25,484.16L385.76,484.97L382.94,488.36L381.5,489.27L380.23,491.11L379.5,492.76L378.03,494.79L376.57,494.62L376.44,495.62L375.76,496.83L376.15,498.04L375.84,499.76L376.32,503.1L375.67,505.6L375.43,507.14L375.59,508.23L374.7,509.03L374.03,510.85L374.13,512.65L373.33,513.97L372.28,516.32L371.23,517.28L370.54,518.99L370.7,520.18L370.34,520.65L368.79,521.3L368.05,522.08L367.89,523.14L365.44,523.2L363.91,523.43L363.02,523.04L360.97,523.46L360.13,524.4L358.87,525.29L357.41,525.61L355.02,526.89L352.33,529.13L350.55,531.54L350.19,534.18L350.52,535.66L350.34,538.3L349.87,539.82L348.61,540.72L347.34,542.22L346.58,543.56L345.87,545.49L343.58,545.3L342.76,547.43L341.41,548.47L340.82,550.04L340.99,550.92L340.42,551.78L339.59,554L337.55,556.05L336.57,557.98L335.55,558.92L333.59,559.77L331.54,559.26L330.35,559.69L328.39,558.94L327.55,558.22L325.79,558.3L324.27,556.47L323.93,557.71L324.58,558.97L327.19,560.61L327.58,561.64L327.06,562.35L327.29,563.74L328.81,564.68L328.87,566.09L326.94,569.08L326.54,570.24L324.86,571.43L320.46,572.8L317.03,573.33L314.49,573.08L313.76,573.87L314.52,574.64L313.9,576.45L313.61,579.93L312.11,580.7L309.94,580.85L307.06,579.66L306.31,579.9L306.62,582.33L306.51,583.77L308.21,585.44L310.41,585.34L310.15,586.79L308.99,586.99L308.47,585.94L307.6,585.79L306.59,586.62L308.18,587.71L306.7,588.57L305.91,589.8L305.7,592.95L304.94,593.64L304.96,594.94L303.49,594.78L301.49,595.88L299.85,598.6L299.83,600.04L301.93,602.61L304,602.96L304.7,603.94L304.51,606.3L302.95,607.91L301.25,609.05L299.51,611.57L299.24,614.08L296.16,616.26L295.37,618.65L295.91,621.58L297.62,624.48L295.36,624.04L294.51,624.98L291.21,626.5L290.68,631.01L289.87,631.48L287.53,630.35L288.39,628.79L289.6,628L289.63,626.48L286.78,628.66L285.19,628.61L282.63,625.93L283.11,624.16L283.95,623.32L282.74,622.21L282.94,620.27L280.49,619.13L279.75,617.51L281.78,614.56L281.76,608.92L281.13,607.63L280.92,605.35L282.24,603.3L282.26,602.49L278.25,601.07L280.2,599.33L279.82,598.24L282.25,597.82L282.57,596.49L283.87,596.74L284.37,594.83L286.03,593.91L286.23,592.8L284.63,591.8L285.34,589.81L285.06,589.16L285.66,587.67L285.91,584.96L286.67,583.81L286.21,582.66L285.29,582.25L283.94,583.15L283.17,582.15L282.76,580.74L283.55,577.1L284.24,576.08L284.73,574.13L283.91,571.19L284.09,570.08L283.57,568.93L283.73,567.22L284.76,567.14L285.02,565.55L285.67,564.56L286.34,561.91L287.4,560.31L287.99,557.29L288.89,555.64L288.69,553.86L289.46,552.48L289.26,549.79L288.9,547.8L288.88,545.19L289.6,544.62L289.82,543.1L289.28,540.89L290.17,539.22L290.53,537.25L291.61,533.07L291.43,531.45L292.15,529.64L291.8,528.09L292.03,525.57L291.83,523.46L292.45,522.86L293.1,518.95L292.81,516.76L292.94,514.14L292.6,512.63L292.37,510.17L289.77,508.17L289.25,507.08L287.7,506.27L286.75,505.45L285.88,505.19L283.13,503.9L282.27,503.24L279.72,501.85L278.58,500.43L277.51,499.7L276.56,498.32L276.84,496.63L275.11,493.43L274.26,492.65L274.08,491.57L272.98,490.54L272.7,489.32L271.51,487.29L269.97,483.31L269.3,482.22L268.33,481.21L267.3,479.14L266.37,478.02L264.5,477.03L263.52,476.12L264.31,475.63L263.71,473.67L263.1,472.71L263.24,471.78L264.54,470.2L266.6,468.86L267.39,467.13L266.33,466.99L265.47,467.25L264.1,466.09L264.61,465.79L264.53,463.93L264.26,463.12L265.19,462.51L265.38,461.23L266.31,460.26L266.6,459.15L266.43,458.15L267.36,457.63L269.6,457.03L269.89,455.32L270.35,454.09L271.68,453.61L272.88,452.57L274.02,450.68L274.22,449.94L273.53,449.41L273.9,447.64L273.6,445.78L274,444.81L273.41,443.74L273.71,442.86ZM236.52,460L237.87,462.25L237.59,462.75L236.34,462.96L236.11,462.38L236.95,461.91L236.35,461.01ZM346.01,460.56L347.66,460.86L349.02,460.68L350.99,461.19L350.56,462.38L349.52,464.2L347.77,464.81L345.31,465.01L344.64,463.55L344.61,461.97L344.95,460.97ZM342.3,463.83L342.19,462.53L342.54,461.98L343.57,462.02L343.26,462.97ZM283.27,588.76L281.72,588.46L282.11,587.05L282.57,583.14L283.93,583.51L284.08,585.56L283.23,585.99L284.17,587.26ZM283.37,592.64L282.71,593.01L283.39,595.36L282.4,596.14L281.02,593.59L281.33,592.93ZM285.61,593.83L284.15,593.56L284.78,592.42L285.75,592.88ZM281.02,608.24L280.21,609.05L279.43,607.1L280.72,607.04ZM281.25,609.8L281.44,613.39L281.15,614.63L279.2,614.04L279.51,610.9L280.55,609.37ZM323.07,620.01L324.07,621.03L325.4,620.5L325.76,621.89L323.51,622.87L322.49,623.9L321.14,622.82L322.51,621.79ZM318.81,620.56L319.62,620.91L321.95,620.68L320.21,623.01ZM294.9,625.26L296.56,625.66L297.93,627.45L298.64,630.04L300.55,632.23L305.74,636.03L302.64,636.75L301.52,636.25L297.78,635.75L295.78,636.18L294.07,635.27L292.01,635.72L289.49,634.84L290.94,633.55L291.02,631.48L293.09,629.39L292.11,628.44ZM285.47,629.5L287.45,631.14L284.52,631.75L283.5,629.42ZM293.64,636.05L296.26,636.68L297.91,637.79L297.88,639.04L294.9,638.68L293.39,637.29ZM301.11,637.14L299.29,637.81L298.38,636.27L300.68,636.5Z" fill="#dadada" stroke="#fff" stroke-width="0.5" id="southAmerica" data-name="South America"/>
    <path d="M625.92,69.86L633.85,75.34L628.57,77.91L624.18,74.99ZM645.78,74.64L642.8,81.45L638.15,79.79L638.91,74.94ZM535.73,84.13L539.87,81.71L551.63,85.54L552.53,89.44L548.38,96.92L543.86,99.92L535.63,97L529.93,91.65L528.92,87.1ZM524.76,89.44L529.55,94.46L530.91,100.45L534.55,100.84L537.04,106.25L532.72,107.84L529.17,115.72L528.61,122.05L527,123.56L524.53,133.28L518.31,125.57L519.79,119.98L516.48,115.68L511.4,106.57L508.98,91.11L514.01,91.42L515.69,95.79L522.18,92.83ZM537.62,108.21L541.64,116.15L544.64,117.34L543.58,122.36L538.82,122.31L537.62,117.12L533.94,109.79ZM660.71,137.16L656.75,139.98L643.62,147.18L640.59,152.54L636.09,155.53L635.84,159.18L631.9,166.45L626.68,165.63L624.8,166.59L623.37,162.68L625.71,160.83L628.22,154.24L630.66,150.89L632.23,146.45L637.02,141.39L642.81,138.47L647.92,137.17L655.63,132.89L660.09,128.28L662.63,129.15L663.73,133.35ZM627.52,166.99L630.48,167.98L629.56,171.74L627.62,174.63L627.46,179.25L629.45,184.25L631.72,187.7L632.39,190.43L625.6,189.7L623.26,188.62L622.3,182.61L618.17,183.03L617.55,178.08L620.33,176.08L623.34,167.13ZM661,206.56L662.05,215L660.12,218.84L656.54,222.52L652.8,225.5L648.22,230.67L643.24,234.55L641.45,253.57L640.17,261.99L638.48,266.76L636.8,270.13L634.74,272.73L634.21,275.04L636.21,276.71L636.51,278.77L634.93,281.32L629.56,282.27L631.93,286.35L633.66,288.56L637.21,286.06L639.01,287.08L639.69,288.75L638.42,290.08L637.35,292.17L637.43,294.7L639.22,295.34L640.48,297.31L640.18,297.45L641.24,298.85L643.64,299.75L644.23,300.66L643.71,302.22L641.7,303.05L639.88,302.48L639.5,303.4L637.02,302.92L635.63,301.36L634.24,301.24L633.18,302.1L632.03,301.36L630.64,301.55L628.79,303.31L628.11,303.31L625.94,301.64L625.12,302.56L624.11,301.14L622.23,299.58L620.19,299.58L619.55,298.72L617.62,299.57L615.45,298.52L613.99,300.4L611.99,301.28L610.16,303.32L610.25,305.77L609.16,306.54L607.22,304.25L606.2,304.69L605.31,306.44L604.81,308.43L605.37,309.53L604.54,310.72L604.43,312.31L605.34,312.82L605.58,314.16L608.29,314.97L610.56,318.78L609.63,319.59L611.29,320.48L608.42,322.78L606.73,323.3L605.64,325.94L604.68,326.87L604.67,327.76L605.95,328.61L606.69,331.13L606.57,332.87L608.61,335.96L610.95,339.11L611.27,340.08L612.74,341.64L614.15,342.24L612.14,343.01L611.53,345.04L611.63,345.94L610.7,346.68L610.27,347.77L610.32,349.07L609.58,349.15L608.06,347.76L608.65,347.21L607.99,344.78L607.39,344.9L604.94,346.63L604.15,347.47L603.12,347.59L601.28,347.12L598.9,344.49L598.37,345.68L597.39,345.84L598.48,349.34L597.9,350.86L598.83,351.41L599.45,352.94L598.08,353.98L597.75,352.96L596.04,353.09L594.07,352.66L590.71,353.61L588.55,353.58L586.71,354.49L584.95,354.97L583.38,354.93L581.84,354.24L579.83,355.09L577.76,354.57L577.43,355.71L576.34,357.78L575.71,357.5L575.5,356.2L576.5,355.04L576.13,354.21L574.77,355.25L572.27,354.63L569.85,356.62L567.45,357.11L566.34,356.62L565.39,355.45L563.61,354.57L561.72,354.36L561.29,356.2L559.17,356.71L557.72,355.91L557.43,354.93L555.96,354.56L555.02,353.81L552.93,353.84L552.21,351.6L552.62,350.62L551.15,349.87L551.63,349.28L551.37,348.13L552.04,347.53L551.15,346.13L551.54,345.2L549.64,345.53L549.82,343.72L551.3,342.29L552.76,342.09L553.27,342.57L555.44,342.27L558.31,340.85L557.45,340.15L558.19,339.37L563.35,339.79L563.89,339.04L566.15,337.58L569.02,336.55L572.67,336.77L573.35,336.39L574.13,337.59L576.14,337.75L577.36,339.25L582.35,340.44L585.14,339.8L587.37,340.31L590.44,338.67L591.37,336.72L590.64,334.24L588.9,332.77L588.06,332.56L586.33,331.27L583.25,328.25L581.82,327.76L580.94,326.72L579.76,326.58L578.51,324.49L580.39,324.16L581.16,321.77L581.82,321.41L581.25,319.39L584.78,317.49L582.63,317.22L580.12,317.61L579.57,318.23L576.74,319.23L575.54,319.37L572.93,321.05L573.39,322.92L574.82,324.41L576.45,323.87L577.53,324.09L577.05,325.34L575.65,325.56L574.85,325.13L573.57,326.33L572.58,326.31L570.43,327.88L569.2,327.26L569.48,325.21L566.69,324.05L569.77,321.98L568.54,321.1L566.61,321.46L565.43,320.77L565.27,319.04L562.12,319.65L560.58,322.29L558.94,322.99L559.27,324.28L558.82,326.17L557.46,326.5L556.39,328.22L556.16,331.16L554.48,332.32L554.37,333.91L553.29,334.93L554.62,336.44L555.59,338.52L557.49,339.36L556.75,340.27L555.13,339.89L553.33,340.27L552.69,341.28L549.61,341.54L548.95,340.73L546.94,340.19L546.11,340.68L545.02,340.48L543.68,341.78L543.1,342.9L542.17,342.93L540.35,341.95L540.25,343.55L541.12,344.97L541.24,347.03L540.73,347.82L542.01,348.3L543.91,349.61L544.15,351.53L542.88,350.51L541.85,350.68L541.76,352.79L540.71,352.59L541.53,354.66L540.29,354.64L538.88,353.81L537.55,353.64L537.52,352.09L536.39,350.82L537.08,349.88L538.2,349.43L540.8,350.61L539.79,349.06L537.26,349.46L536.3,349.24L535.4,347.8L535.41,347.11L534.14,346.01L532.94,343.53L531.73,342.69L531.84,338.67L532.21,337.38L531.16,336.8L530.38,335.72L527.53,333.73L525.07,331.56L522.51,330.59L520.33,328.37L519.61,325.28L518.36,324.29L517.24,326.2L516.34,325.17L516.05,323.76L514.75,323.16L512.73,323.89L513.4,325.7L512.66,326.63L513.06,328.49L513.84,329.34L516.17,330.9L517.36,334.13L519.64,336.43L520.45,336.85L522.57,336.83L522.7,338.63L525.61,339.96L527.88,341.39L529.3,343.32L528.21,343.9L527.64,342.7L525.14,342.08L524.08,344.17L524.26,344.94L525.64,345.83L525.8,347.15L524.16,348.12L524.12,349.16L522.82,350.74L521.93,350.75L522.59,348.12L523.19,347.96L522.73,345.92L521.85,343.72L519.87,342.85L519.37,341.34L517.61,340.79L516.62,339.34L514.9,339.31L513.68,338.51L511.03,335.58L509.78,334.69L508.56,333.23L506.79,329.25L504.77,328.13L503.38,327.75L501.55,329.62L499.15,330.58L497.32,332.38L496.31,332.73L494.42,332.16L493.49,331.37L492.57,331.63L490.81,330.82L488.69,332.29L488.14,333.31L488.66,336.81L485.55,339.16L482.75,339.96L481.91,340.8L480.97,342.57L479.13,345.35L479.45,346.92L480.54,347.96L478.98,349.07L478.28,350.03L477.81,351.96L476.46,352.03L475.21,353.13L474.37,354.65L468.36,354.85L467.54,355.55L466.21,355.82L465,357.14L463.89,356.6L462.69,354.06L461.64,353.26L460.02,353.35L459.11,353.89L457.07,353.5L456.5,352.46L456.23,348.81L454.74,348.06L455,345.97L455.6,345.27L456.3,343.06L456.92,340.07L456.3,336.24L456.82,335.63L455.37,333.08L456.34,331.78L457.23,331.77L457.98,330.87L459.47,330.19L460.63,330.82L464.89,330.86L467.94,331.48L470.39,331.1L471.88,331.64L473.77,331.8L476.04,330.93L476.68,327.24L477.16,322.52L476.94,320.58L475.24,319.79L474.62,317.76L471.58,315.17L468.5,314.66L467.66,313.61L468.28,312.49L467.41,311.79L471.38,310.58L472.82,311.81L473.48,311.36L476.17,311.38L475.78,309.11L475.05,307.13L476.64,307.15L476.96,308.35L479.56,308.72L480.74,308.04L480.5,307.05L483.32,305.83L484.14,304.6L484.21,302.73L485.1,301.67L486.52,301.35L489.57,299.7L491.95,296.01L492.72,293.23L493.4,293.19L493.65,295.66L494.83,294.76L494.33,292.54L496.17,291.16L498.18,291L499.43,289.92L501.36,289.88L502.77,290.48L503.73,289.23L503.89,286.03L503.15,284.86L502.98,281.94L501.69,281.08L501.77,276.27L502.98,273.81L505.48,273.21L506.57,271.48L508.1,272.14L507.42,276.2L508.92,276.68L507.52,278.17L507.15,279.83L505.58,281.59L505.72,283.79L507.23,286.62L509.36,287.66L510.4,288.74L512.3,287.72L513.53,286.35L514.74,286.61L516.97,289.15L518.63,289.97L519.24,288.4L523.16,287.16L524.16,285.95L526.03,285.15L528.86,284.64L529.79,286.52L531.75,286.72L532.69,286L533.27,284.26L536.5,284.19L536.63,281.76L536.16,280.07L536.19,275.21L537.94,271.53L540.15,270.77L543.06,274.49L545.08,272.75L544.8,270.47L545.41,267.6L543.38,267.56L542.69,266.04L542.65,263.27L545.01,261.82L548.03,260.95L554.38,262.13L555.88,260.02L557.73,259.03L556.38,257.02L556.4,255.74L553.23,256.53L552.65,256.13L548.42,257.24L543.26,259.21L540.78,258.62L540.2,257.1L537.16,255.82L536.96,253.79L537.62,250.33L536.68,248.08L536.28,244.45L539.32,239.66L542,236.9L544.74,233.11L545.49,231.33L547.66,230.02L547.59,227.03L545.55,225.23L543.18,224.77L537.51,227.48L537.53,229.28L536.37,231.28L537.24,233.95L535.37,237.07L530.76,240.85L529.24,242.86L527.72,243.24L526.45,249.49L525.68,250.42L526,255.25L527.88,255.86L529.49,257.67L530.59,260.32L527.67,262.88L528.76,263.72L526.55,265.02L524.41,267.19L524.07,274.02L522.66,278.12L519.42,278.41L517.91,279.98L518.24,281.42L515.52,282.27L513.58,278.53L514.36,276.21L513.12,274.81L511.29,270.8L510.06,266.98L509.86,263.88L508.39,262.26L507.14,264.24L505.65,264.56L501.78,268.66L498.68,269.27L495.22,266.73L495.59,262.44L493.68,263.11L494.15,260.93L493.65,259.91L493.98,255.97L493.46,255.22L493.14,249.66L494.76,246.25L496.94,244.52L499.42,244.57L498.69,242.5L501.6,241.71L502.39,239.08L505.86,238.54L505.89,237.09L510.27,230.67L512.43,228.94L512.73,226.45L514.6,223.52L514.95,220.07L519.35,213.52L519.46,211.34L522.84,208.56L524.4,205.47L526.38,204.2L528.27,201.54L528.78,199.14L533.52,196L536.43,195.95L537.07,193.73L540.49,192.15L541.46,194.3L545.12,189.53L545.76,187.1L548.72,188.3L553.59,186.35L557.61,188.24L562.52,192.94L558.94,195.28L563.87,197.5L565.29,195.46L567.84,197.02L566.34,199.11L569.82,200.39L575.62,201.28L580.61,204.99L587.68,211.18L589.24,212.01L589.84,218.14L588.06,220.69L584.77,222.78L582.39,223.22L574.7,221.03L572.87,219.59L566.57,217.53L569.51,221.53L571.73,222.8L572.76,224.53L571.75,227.56L572.81,230.17L572.99,232.83L575.06,233.96L576.97,236.26L579.85,237.4L581.52,236.11L581.21,234.31L579.16,233.77L577.41,231.04L578.35,228.99L581.36,230.84L586.02,232.73L587.42,230.09L586.18,226.26L588.51,223.89L590.6,222.83L592.56,220.2L597.59,222.1L598.64,219.18L598.11,216.28L596.75,215.21L597.93,210.02L597.46,206.03L602.38,206.54L604.51,211.06L601.41,211.7L599.84,213.67L602.63,217.96L604.51,218.14L607.22,216.65L607.67,212.92L610.34,211.89L615.57,207.48L620.13,205.72L623.47,202.74L623.91,208.36L625.5,208.03L629.45,205.3L632.34,206L637.12,202.68L639.73,206.96L642.49,202.81L640.45,198.25L642.71,196.25L648.96,197.61L657.11,203.1L658.67,203.65ZM641.2,195.6L638.88,197.12L637.21,195.93L635.93,193L637.35,191.43ZM526.67,198.21L527.87,201.23L525.26,201.68ZM614.04,201.32L612.34,203.75L609.78,204.68L608.74,202.41L609.68,199.43L611.27,198.86ZM438.55,222.14L440.8,223.51L440.65,225.24L443.69,226.97L443.06,230.94L439.94,234.46L437.17,235.59L435.63,237.09L432.49,238.01L430.26,239.84L426.14,238.95L421.78,235.02L421.47,233.11L419.51,229.91L421.32,226.93L418.93,226.37L415.4,226.97L416.7,223.19L420.2,220.8L423.19,224.45L423.39,227.4L425.72,225.48L425.72,223.43L429.93,222.54L435.34,222.78L435.89,220.69L437.37,220.24ZM471.71,266.78L471.43,267.77L469.36,269.59L470.93,270.85L474.47,270.88L475.26,271.92L472.93,277.66L471.52,278.8L474.27,279.65L475.59,281.22L476.56,284.94L478.21,286.18L479.45,288.39L481.49,293.11L482.81,293.15L484.42,294.06L484.66,295.31L484.16,296.97L482.55,298.18L481.83,299.99L483.77,300.09L482.56,301.95L480.55,302.63L475.96,302.7L473.21,303.25L470.92,303.18L469.88,304.87L468.87,304.2L465.75,304.8L467.78,302.58L468.83,300.83L471.64,300.76L468.3,298.47L466.93,298.96L466.43,297.37L468.31,296.49L469.39,294.99L469.04,292L471.83,291.07L472.2,289.69L469.45,284.91L466.31,284.55L467.41,281.92L466.01,279.52L465.04,278.92L465.62,276.71L464.17,276.27L465.17,273.21L464.49,272.2L465.76,268.18L467.43,266.8ZM540.31,266.23L542.11,266.94L539.17,268.61L538.89,266.97ZM530.87,270.21L530.17,270.86L529.87,273.16L528.36,271.61L529.43,270.24ZM513.52,280.21L511.08,283.02L510.1,282.94L509.28,280.51L512.58,278.62ZM508.39,281.03L508.76,283.27L506.64,283.13L506.29,281.48ZM460.86,283.63L463.66,282.88L465.41,286.2L465.05,287.24L463.08,288.54L463.93,293.29L462.5,296.53L459.93,296.92L459.56,297.44L456.5,299.14L455.21,299.51L454.45,298.69L452.32,297.92L453.45,296.76L455.2,292.53L453.88,291.21L453.34,287.23L457.01,286.9L456.63,285.37L457.93,283.21L460.68,282.24ZM505.28,333.71L505.47,336.15L504.5,338.81L503.49,338.09L503.24,334.63ZM505.69,340.59L506.15,341.94L505.5,346.57L504.15,346.32L503.68,347.44L502.45,346.43L502.59,342.66L501.84,341.4L504.75,339.46ZM488.39,344.41L489.23,344.73L488.19,346.1L486.32,345.03L487.43,344.19ZM542.44,347.28L544.26,348.26L543.36,349.18L542.01,347.82ZM521.54,349.8L520.27,352.37L520.78,353.86L520.3,354.95L518.67,354.58L517.71,353.56L517.08,353.57L513.16,351.15L515.6,349.93L516.48,350.54L518.68,350.39L519.59,349.96ZM571.9,358.56L570.51,359.55L570.8,360.54L567.84,361.88L566.53,361.38L566.18,360.65L567.84,359.23L569.22,359.4ZM543.61,358.75L544.83,359.31L545.92,359.11L547.94,359.5L548.65,360.04L546.13,360.71L545.24,359.98L542.83,359.54ZM436.44,381.27L435.58,382.4L434.92,381.39Z" fill="#dadada" stroke="#fff" stroke-width="0.5" id="europe" data-name="Europe"/>
    <path d="M567.7,534.62L566.76,538.68L566.09,539.96L564.74,540.92L563.56,542.26L560.77,547.18L556.95,551.32L554.29,553.73L552.21,555.22L550.48,555.98L549.31,555.83L548.37,556.79L546.67,556.67L546.21,557.3L542.9,556.71L542.05,557.02L540.14,556.79L539.32,556.98L538.1,557.96L536.16,557.93L534.75,558.25L533.39,559.3L532.36,559.19L530.16,557.1L528.95,556.56L529.15,555.85L527.68,553.44L528.67,552.45L528.83,550.78L528.56,549.59L527.14,547.33L525.84,544.48L525.2,542.34L523.95,540.02L521.92,537.97L520.91,536.23L519.91,533.03L519.59,531.28L519.57,529.23L518.67,526.79L518.6,524.11L518.74,522.44L518.19,520.96L517.26,519.74L515.87,517.31L515.12,515.22L513.22,511.66L512.25,510.58L511.4,509.06L511.26,507.56L511.52,505.44L511.34,503.01L511.91,502.46L512.75,499.71L513.47,496.41L514.62,494.6L515.78,493.9L516.76,491.97L516.93,489.91L515.22,486.25L514.66,484.48L515.62,483.5L515.68,482.65L514.3,479.58L514.2,478.84L513.39,477.86L512.41,475.29L512.55,474.85L511.41,472.43L509.42,470.46L507.59,468.28L505.67,466.56L504.71,465.11L504.88,464.34L504.17,463.71L503.52,462.14L504.79,461.18L505.25,459.28L504.88,458.62L505.67,458.17L505.32,456.42L506.15,455.11L506.19,453.47L506.53,452.03L506.34,451.42L505.13,449.78L504,449.33L503.37,448.02L499.08,448.19L498.02,448.65L496.2,448.79L494.9,447.84L493.95,445.6L492.96,444.15L491.82,443.28L491,443.11L487.39,443.21L484.85,443.52L482.95,444.08L482.53,444.73L480.69,444.87L479.07,445.55L477.87,446.29L475.63,446.95L474.66,447.53L473.6,447.09L469.23,446.28L465.16,446.66L461.75,447.78L460.2,448.57L459.57,448.59L457.98,447.99L455.65,446.75L452.6,444.01L451.24,443.39L448.19,441.04L446.71,440.5L446.64,439.74L445.65,439.23L444.85,437.29L444.61,435.69L443.47,433.85L441.53,432.77L440.6,430.92L439.89,430.89L438.95,430.14L438.66,428.76L436.96,428.23L435.43,427.04L435.13,424.34L435.77,423.39L434.22,420.77L434.27,420L435.91,417.46L435.9,416.22L436.41,414.44L437.12,412.71L437.11,409.97L436.76,408.62L435.96,407.6L436.58,406.4L436.77,405.15L436.19,403.94L435.67,403.99L435,402.7L434.85,400.37L435.96,399.12L436.77,396.91L438.44,394.08L439.9,392.68L440.38,391.74L440.55,390.17L441.56,387.65L443.8,386.22L444.86,383.46L445.47,382.68L448.04,382.03L449.52,381.26L450.45,380.25L452.04,379.18L454.22,375.98L454.26,374.94L453.67,374.1L453.84,371.9L455.07,369.82L455.34,368.29L457.08,366.34L461.6,363.84L463.06,361.23L464.2,357.93L465.61,357.46L466.39,358.97L468.45,359.97L470.15,359.59L472.43,360.08L474.62,360.22L475.54,359.9L477.55,358.32L478.86,357.68L480.13,357.55L481.37,356.36L483.35,355.51L486.92,355.24L487.93,354.63L490.08,354.25L492.69,354.25L493.86,354.98L496.17,354.36L497.3,353.62L498.47,354.18L500.29,353.91L501.09,354.39L503.53,353.91L505.83,352.77L507.19,353.22L508.19,354.31L509.67,354.33L508.07,356.16L508.24,357.6L509.35,358.43L509.65,359.72L508.09,361.98L506.84,363.05L507.09,364.22L508.59,365.29L512.75,367.38L514.01,367.57L515.42,367.2L517.97,367.95L518.7,368.48L520.47,368.86L521.32,371.17L521.88,371.89L522.99,372.4L526.26,372.97L528.51,373.92L530.5,375.42L531.44,375.43L532.57,374.81L533.74,372.98L533.14,370.67L533.66,369.41L534.99,368.27L537.7,367.13L539.17,367.19L541.58,368.14L542.1,369.42L544.35,370.07L545.82,370.04L546.73,370.46L547.27,371.56L549.05,371.29L552.66,372.05L554.58,372.92L556.04,373.07L557.53,373.75L558.91,373.19L561.05,371.8L561.87,371.96L563.18,371.39L565.6,372.94L566.94,373.01L568.35,372.7L569.78,372.82L571.2,372.22L573.08,377.92L572.63,378.56L571.73,382.37L571.25,383.13L570.03,382.27L568.66,380.7L568.2,379.16L567.26,377.79L566.84,378.2L567.02,379.41L567.73,380.71L569.46,382.72L569.47,383.6L570.38,385.28L570.56,386.47L572.17,389.32L573.85,392.9L575,394.1L574.73,395.91L575.19,397.35L576.61,398.27L578.21,399.8L578.47,401.27L579.07,402.65L579.27,404.21L579.33,406.98L579.92,409.13L581.12,409.88L581.87,410.74L582.86,411.23L583.76,413.04L584.38,414.99L584.8,417.23L585.35,418.31L586.3,418.48L587.21,419.74L588.12,419.96L589.8,420.83L591.09,422.58L592.65,423.67L594.12,425.65L594.89,425.76L595.76,427.49L595.39,428.09L594.13,428.72L595.84,429.79L596.94,431.32L598.36,432.28L599.85,432.26L602.18,431.18L604.17,431.42L606.41,430.26L608.05,430.35L609.8,429.85L610.41,430.04L613.63,429.29L615.45,428.05L616.68,428.47L616.23,429.82L616.38,431.66L615.73,432.76L615.53,434.99L614.48,436.56L613.61,438.31L612.94,438.94L612.7,439.76L611.6,441.56L610.8,443.75L609.73,445.57L607.93,448.24L605.01,451.48L602.8,453.64L599.79,455.42L598.22,456.54L595.91,458.59L591.95,462.84L590.37,465.22L589.32,465.45L589.06,466.3L588.38,467.02L587.26,467.42L586.97,468.92L585.31,472.2L584.61,472.7L583.52,475.95L583.66,477.16L585.26,478.63L585.38,479.29L584.77,480.35L585.18,481.68L584.81,482.85L586.09,486.82L586.62,487.48L587.7,488.01L588.3,488.84L587.74,490.66L588.21,494.22L588.12,496.48L588.37,499.03L588.89,500.14L588.31,501.03L588.16,502.02L586.96,503.42L586.25,504.69L584.22,506.18L581.72,506.94L579.32,508.33L577.44,510.51L575.07,512.33L573.19,514.17L572.68,514.19L572.53,515.85L573.29,516.99L574.05,519.41L574.17,521.55L574.87,523.19L574.32,525.62L574.5,526.7L573.75,527.79L572.29,528.61L568.93,529.9L567.45,531.04L566.91,532.1L567.82,532.84ZM612.1,493.66L613.17,495.41L613.8,498.07L613.96,499.97L614.62,501.78L613.89,503.37L613.05,501.98L612.4,502.28L612.9,504.83L611.86,506.93L611.94,508.77L609.62,516L608.94,518.54L607.76,521.75L606.82,525.84L605.81,528.51L604.61,529.58L603.09,529.81L601.35,530.8L600.31,530.74L599.5,530.12L598.26,529.8L597.43,529.12L596.5,527.25L596.59,524.83L595.73,522.97L595.38,520.55L596.01,518.56L596.95,517.76L597.97,515.78L598.41,514.48L598.53,513.08L597.97,512.08L597.95,511.14L597.44,509.87L597.28,507.35L598.46,505.43L598.6,504.08L599.76,503.96L600.45,503.43L601.6,503.46L601.87,502.96L603.55,502.68L603.93,502.13L607.5,499.46L607.99,497.85L610.12,495.95L610.43,495.04L610.4,493.73L611.22,492.7ZM628.86,518.34L628.15,518.57L627.29,517.71L628.43,517.28Z" fill="#dadada" stroke="#fff" stroke-width="0.5" id="africa" data-name="Africa"/>
    <path d="M775.7,405.82L776.04,406.77L774.86,408.14L774.54,409.33L772.05,410.82L769.87,409.93L769.85,407.67L771.14,406.72L771.25,406.24L772.4,405.84L774.9,405.59ZM802.94,409.71L804.92,410.61L806.13,410.31L805.74,412.12L805.96,413.02L806.72,413.89L805.69,416.5L804.25,417.2L804.29,417.93L803.71,418.89L804.52,420.51L804.4,421.21L804.8,422.22L805.87,422.13L806.64,421.65L807.62,421.85L808.62,423.23L809.15,422.63L809.94,422.85L809.62,423.83L811.05,425.18L810.83,426.46L808.83,425.16L808.44,424.07L806.92,422.79L806.42,423.93L804.74,422.71L803.21,423.52L802.24,422.85L801.64,422.02L802.46,421.18L802.37,420.57L800.22,420.19L799.55,416.11L800.43,416.88L801.04,416.4L800.81,415.54L801.09,414.36L800.96,412.45L801.6,410.01ZM801.88,423.97L803.21,424.09L804.06,424.92L804.11,426.27L803.3,427.41L802.46,426.61L802.04,425.36L801.36,424.57ZM623.37,426.27L624.5,426.2L624.35,427.03L622.93,427.08ZM813.97,426.57L814.76,427.49L814.55,428.14L815.01,430.37L813.96,430.34L813.42,429.8L813.02,428.62L811.69,427.34L811.45,426.46ZM806.66,429.06L808.42,429.27L808.04,430.41L807.39,431.21L805.86,431.75L805.24,431.08L805.61,428.98ZM812.2,429.8L813.15,429.72L813.37,431.31L814.01,432.73L813.4,433.35L812.75,432.99L812.77,431.32L811.85,430.94ZM792.83,437.66L792.93,436.92L794.36,435.5L794.97,435.21L797.4,432.49L797.93,432.15L798.03,431.15L798.74,430.86L799.16,431.95L797.84,433.28L796.75,433.67L795.83,435.46L794.64,436.48ZM808.99,434.93L809.03,433.53L809.9,432.16L810.54,432.59L809.72,433.39ZM808.35,435.97L806.83,434.84L806.59,433.55L807.61,433.21L807.51,432.08L807.96,431.04L808.68,430.75L809.51,431.33L808.43,433.81L808.82,435.18ZM812.25,434.02L811.63,434.44L810.49,434.46L810.18,433.94L811.13,433.08L812.21,433.37ZM693.29,433.95L694.01,433.99L695.23,435.16L696.99,437.68L697.16,438.52L698.33,440.76L698.3,441.8L697.7,443.08L697.01,443.57L695.26,444.27L694.05,444.19L693.59,443.81L692.96,441.99L692.78,439.96L693.14,436.42L693.65,435.26ZM816.02,435.28L816.52,435.4L816.85,436.57L817.16,439.29L817.52,439.71L817.55,440.87L816.21,442.25L815.53,440.64L814.4,442.08L814.9,442.97L815.11,444.27L814.55,445.12L812.36,444.22L810.87,443.13L810.63,441.55L811.22,440.47L810.58,439.75L809.31,439.36L809.04,440.44L806.66,439.72L805.8,441.52L805.46,440.56L805.69,439.35L806.23,438.77L807.76,438.42L808.05,437.77L809.16,436.95L811.27,438.11L811.87,437.21L812.62,437.33L812.98,436.22L814.76,435.77L814.44,434.34L814.72,434.1ZM791.49,442.36L792.34,441.62L792.78,442.4L793.72,442.95L793.65,444.38L794.68,444.07L794.98,444.59L796.25,445.31L797.93,445.79L797.69,446.63L795.16,447.36L796.17,448.23L795.99,448.6L794.69,448.9L793.98,448.67L793.24,449.37L793.68,450.54L792.44,450.66L793.63,452.07L794.84,454.06L794.31,455L794.88,455.71L796.37,456.73L797.29,457.63L796.09,458.08L795.19,457.92L793.99,458.3L793.39,459.62L793.23,461.11L793.5,462.3L790.81,464.18L790.46,465.72L790.84,466.38L790.22,467.99L789.22,469.84L785.85,471.38L785.43,469.57L784.22,468.99L783.45,469.47L782.74,468.74L781.26,468.75L780.27,469.32L779.43,469.11L778.19,469.67L778.19,468.4L776.98,468.07L776.12,468.4L774.86,467.96L773.95,468.05L773.38,463.98L772.77,462.94L771.88,462.56L771.09,461.57L771.35,460.16L770.52,459.3L770.42,458.13L770.87,456.26L771.68,455.12L772.34,454.84L773.29,455.67L774.26,455.66L775.84,456.2L776.41,455.61L776.65,453.75L777.94,452.63L780.63,452.05L781.45,451.69L782.52,450.26L783.8,448.92L784.14,447.99L784.8,447.95L786.65,446.84L788.05,446.76L787.78,445.79L788.79,445.46L789.7,443.87L790.65,442.82ZM737.31,446.28L739.87,446.26L741.09,447.22L742,448.46L742.15,449.32L745.95,451.75L747.89,454.23L748.49,454.59L749.46,454.23L750.6,455.73L751.43,455.92L752.42,456.89L753.25,458.17L754.26,458.34L754.84,458.93L755.94,458.97L756.76,460.12L755.81,460.76L755.82,461.67L756.59,462.61L758.3,463.02L758.85,465.37L759.59,465.83L759.12,466.61L761.06,466.6L761.55,466.89L762.79,468.53L762.25,469.89L762.37,473.62L762.18,475.41L761.65,475.74L760.93,475.07L760.22,475.59L759.04,474.99L758.94,476.02L756.88,473.81L754.45,472.18L753.43,471.33L752.34,469.85L750.88,468.7L748.93,465.96L748.95,465.41L747.96,463.71L747.49,462.45L746.29,461.08L745.59,459.97L744.42,459.31L743.46,456.26L742.84,455.17L740.53,453.96L740.24,452.65L739.71,452.31L738.58,450.71L737.19,450.06L734.65,447.53L733.89,446.14L733.94,445.38L735.01,445.26L736.36,446.11ZM737.24,453.95L735.49,453.16L735.48,452.47L737.11,453.54ZM822.54,454.77L821.91,454.12L822.94,453.32L822.99,454.31ZM820.62,457.98L821.76,457.16L822.46,456.2L823.17,456.05L823.21,457.3L822.13,457.91L823.18,459.29L821.29,458.99L821.03,459.45L821.46,462.13L820.51,460.89L820.56,459.48L820.15,458.94L819.79,456.91L820.35,455.33L821.36,455.71L821.36,456.69L820.41,457.54ZM813.04,457.59L811.81,458.99L810.01,459.43L808.71,459.38L808.22,458.95L804.91,459.08L803.8,458.93L800.93,459.05L800.34,459.8L800.03,461.07L800.26,461.98L801.38,463.02L801.78,463.9L802.76,464L804.05,462.53L805.25,462.74L806.08,462.27L807.7,462.26L808.46,461.77L809.01,461.98L809.01,462.92L808.13,462.57L807.49,462.82L806.68,463.84L804.58,465.21L803.6,465.44L804.93,466.47L806.4,468.79L806.01,469.91L807.67,471.21L807.73,471.86L805.89,472.25L805.11,473.19L803.96,472.48L804.31,471.17L802.44,469.73L802.81,468.7L802.81,467.59L801.74,467.36L800.68,468.39L801.16,470.14L800.97,471.15L801.12,472.57L800.74,473.99L800.83,475.05L799.25,475.45L798.34,474.74L798.96,472.05L799,471.01L798.45,469.52L797.32,469.69L796.83,468.67L796.76,467.62L797.58,466.87L798.19,465.39L798.16,464L799.39,461.54L799.49,459.61L800.72,457.66L801.38,458.07L802.43,456.81L803.84,457.01L804.24,457.4L806.5,457.53L807.71,457.98L808.74,457.77L810.26,458.01L811.4,457.52L813.3,455.71L813.96,456.24ZM739.95,456.34L741.15,457.65L741,458.57L739.75,457.72L739.32,456.45ZM855.93,467.21L855.93,473.7L855.93,477.2L855.63,478.26L855.93,478.71L855.94,484.67L853.16,481.92L851.7,482.16L850.28,482.04L850.9,480.54L849.99,479.64L850.31,478.58L849.17,477.2L848.75,475.84L848.16,474.84L845.57,473.39L844.32,473.11L842.61,472.34L840.52,472.13L839.15,471.13L837.73,470.38L837.26,470.44L836.41,469.22L835.33,471.09L834.58,471.17L834.01,470.13L834,469.04L832.93,468.18L835.18,466.75L836.29,467.04L837.08,466.62L837.12,465.85L834.57,466.31L832.82,466.23L832.06,465.55L831.81,464.41L830.12,463.96L830.02,462.53L831.48,462.12L832.34,461.46L833.67,461.2L835.93,462.18L837.27,462.23L838.03,463.88L837.62,464.84L837.75,466.1L840.1,469.14L841.3,469.17L843.32,467.14L843.71,466.31L844.91,466.11L845.66,465.16L847.48,464.2L849.73,465.02L852.77,466.51L854.99,466.77ZM841.02,461.98L842.38,462.18L843.42,463.09L842.24,463.23ZM744.44,464.99L743.66,464.68L742.94,463.44L743.65,462.69L744.71,464.59ZM821.74,464.67L820.16,464.86L820.39,463.8ZM762.79,464.7L763.64,466.82L764.48,467.46L764.13,468.4L762.66,467.78L762.1,466.07L760.36,465.69L761.56,464.32ZM841.26,464.49L843.2,464.66L843.18,465.21ZM813.25,464.8L812.89,465.3L811.78,465.59L811.68,464.75ZM768.55,468.24L766.97,468.81L767.11,467.09L768.2,467.17ZM826.01,467.89L827.68,468.22L828.96,469.77L828.81,470.54L826.25,469.12L825.25,469.46L823.91,469.12L822.45,469.36L821.55,468.74L821.86,467.89L825.14,467.69ZM818.3,468.49L819.27,469.29L819.28,469.94L817.83,470.45L816.48,469.8L816.07,468.71ZM808.48,472.4L808.15,472.92L807.96,474.65L807.5,475.39L806.89,475.05L807.38,474.16L807.61,472.58ZM807.05,474.32L806.39,473.78L806.32,472.97L807.21,472.58L807.36,473.42ZM853.46,141.67L855.85,143.07L857.29,138.28L859.89,140.86L863.16,141.3L867.35,144.3L864.05,149.99L858.63,150.54L850.93,153.95L848.25,152.53L845.35,148.01L846.67,140.79L850.17,137.58ZM871.45,146.59L880.28,148.18L881.72,151.02L878.93,152.78L874.91,152.24L869.73,148.4ZM782.37,156.51L780.75,159.51L777.71,157.77L778.89,155.03ZM859.16,161.44L862.25,164.55L861.85,167.8L855.1,165.65L856.23,161.73ZM668.46,168.96L666.66,166.52L669.17,165.06L671,168.23ZM3,182.31L6.58,184.93L5.81,186.55L1.32,187.73L0,187.16L0,182.64ZM956.96,188.52L957.04,185.2L960,182.64L960,187.16ZM931.2,198.33L927.44,196.36L928.95,194.97L931.67,196.01ZM0.54,203.15L3,204.53L6.91,208.23L12.41,212.26L14.81,216.25L16.85,215.97L19.63,217.47L21.88,217.42L26.15,222.32L24.89,226.11L20.77,227.37L20.76,229.77L18.87,231.93L18.64,234.45L16.72,234.04L15.15,232.35L12.28,231.32L11.06,230.01L10.42,227.08L7.85,226.16L4.51,226.99L2.99,224.06L0.72,224.93L1.73,226.78L0,229.65L0,216.79L0,202.83ZM916.36,266.33L916.7,264.21L918.97,264.88ZM860.7,286.69L861.11,289.42L861.93,291.65L862.2,294.67L861.75,296.99L862.55,299.62L863.51,304.65L864.73,308.66L861.61,309.12L860.2,313.67L860.15,315L861.35,317.03L862.09,319.62L860.21,319.07L859.22,321.44L858.21,320.04L858.77,317.35L858.57,315.59L859.15,313.9L858.31,310.95L859.05,307.6L858.86,303.68L859.22,300.69L857.93,298.49L857.76,296.16L858.14,294.93L858.2,291.46L860.07,290.97L860.45,288.63L859.56,287.21ZM876.26,324.38L874.44,325.62L874.05,324.86ZM863.53,328.89L866.13,329.54L866.94,330.19L867.59,332.35L865.68,333.19L863.92,333.43L862.48,335.11L861.96,336.61L860.02,335.69L858.27,334.53L857.08,334.64L855.96,335.38L854.61,334.6L854.2,335.56L855.29,336.2L854.36,338.33L853.32,338.13L853.62,336.93L852.86,335.22L853.04,334.27L855.42,332.21L856.79,332.27L857.72,329.25L858.09,326.65L857.55,324.99L858.5,323.65L860.54,326.26ZM856.61,338.85L857.23,341.55L858.13,342.67L858.61,344.22L858.4,346.76L857.76,347.22L857.25,349.17L856.29,349.4L855.81,350.72L856.1,352.34L855.92,353.9L855.01,355.56L854.99,357.03L855.66,358.13L854.55,358.83L854.17,359.99L852.8,360.64L852.4,359.17L851.33,359.59L850.62,361.48L849.54,360.22L848.5,361.81L845.03,361.13L844.09,361.55L844.94,362.69L843.55,363.17L842.44,365.14L841.21,365.17L840.47,364.06L840.27,362.81L841.03,362.12L839.31,361.26L837.89,361.48L837.25,362.03L835.05,362.76L832.63,363.01L832.24,364.2L831.31,363.57L829.12,363.81L829.34,362.47L830.28,362.4L831.62,361.39L834.46,358.83L835.67,359L837.9,358.74L840.47,358.06L841.81,358.86L842.92,357.99L842.68,357.26L844.53,354.77L846.25,354.67L846.7,354.07L848.85,353.18L850.36,351.07L851.74,350.06L853.46,345.54L853.13,341.59L854.08,340.72L856.32,340.59ZM838.29,362.91L839.03,363.01L839.3,364.31L838.34,364.99L837.82,366.15L836.35,365.3L835.43,365.79L834.61,367.44L833.32,367.2L832.98,365.3L834.09,363.76L836.22,363.68L837.54,362.58ZM829.8,365.01L830.89,364.85L831.72,366.12L831.94,367.43L831.29,368.23L830.23,371.96L828.24,372.67L827.2,372.31L827.52,371.35L827.19,369.81L828.37,368.14L827.68,366.64L827.13,367.41L825.55,366.18L825.76,365.77L827.64,364.91L827.96,364.27L829.21,364.15ZM802.69,398.29L801.55,399.06L800.87,398.52L800.19,396.76L800.42,395.14L802.77,391.26L804.25,390.55L805.14,391.44L804.37,393.91L803.94,395.97L803.46,397.29ZM737.4,70.55L740.88,75.24L739.13,84.27L732.17,86.07L730.33,87.86L724.06,82.41L728.7,75.36L728.17,72.04L735.47,66.99ZM740.47,85.57L746.83,91.4L745.17,104.96L740.15,105.06L732.41,100.87L728.19,95.58L733.3,86.52ZM754.36,99.07L760.39,105.17L760.83,109.5L756.59,112.7L749.88,113.56L747.42,107.08L750.91,97.69ZM573.08,377.92L571.2,372.22L572.48,370.42L574,365.68L575.06,362.94L575.94,361.97L575.85,359.77L575.37,358.63L575.71,357.5L576.34,357.78L577.43,355.71L577.76,354.57L579.83,355.09L581.84,354.24L583.38,354.93L584.95,354.97L586.71,354.49L588.55,353.58L590.71,353.61L594.07,352.66L596.04,353.09L597.75,352.96L598.08,353.98L599.45,352.94L598.83,351.41L597.9,350.86L598.48,349.34L597.39,345.84L598.37,345.68L598.9,344.49L601.28,347.12L603.12,347.59L604.15,347.47L604.94,346.63L607.39,344.9L607.99,344.78L608.65,347.21L608.06,347.76L609.58,349.15L610.32,349.07L610.88,351.67L611.92,352.24L613.68,352.54L614.75,353.86L616.32,354.77L619.17,355.17L624.05,354.07L623.53,350.79L623.65,347.31L622.98,346.4L621.67,345.65L622.59,344.83L622.41,343.82L621.3,343.72L620.62,342.29L621.72,340.79L622.97,340.82L623.65,341.41L625.89,340.56L625.58,339.49L624.25,338.33L623.59,336.29L621.77,336.28L620.29,338.3L619.9,336.25L620.26,333.87L618.25,333.32L616.81,331.23L615.55,328.61L614.22,328.11L614.42,327L615.63,326.98L617.11,324.23L620.08,324.07L620.73,323.41L621.69,321.04L621.79,319.19L621.11,318.08L619.17,318.53L616.47,317.47L614.45,318.37L613.33,319.33L611.59,319.78L611.29,320.48L609.63,319.59L610.56,318.78L608.29,314.97L605.58,314.16L605.34,312.82L604.43,312.31L604.54,310.72L605.37,309.53L604.81,308.43L605.31,306.44L606.2,304.69L607.22,304.25L609.16,306.54L610.25,305.77L610.16,303.32L611.99,301.28L613.99,300.4L615.45,298.52L617.62,299.57L619.55,298.72L620.19,299.58L622.23,299.58L624.11,301.14L625.12,302.56L625.94,301.64L628.11,303.31L628.79,303.31L630.64,301.55L632.03,301.36L633.18,302.1L634.24,301.24L635.63,301.36L637.02,302.92L639.5,303.4L639.88,302.48L641.7,303.05L643.71,302.22L644.23,300.66L643.64,299.75L641.24,298.85L640.18,297.45L640.48,297.31L639.22,295.34L637.43,294.7L637.35,292.17L638.42,290.08L639.69,288.75L639.01,287.08L637.21,286.06L633.66,288.56L631.93,286.35L629.56,282.27L634.93,281.32L636.51,278.77L636.21,276.71L634.21,275.04L634.74,272.73L636.8,270.13L638.48,266.76L640.17,261.99L641.45,253.57L643.24,234.55L648.22,230.67L652.8,225.5L656.54,222.52L660.12,218.84L662.05,215L661,206.56L662.32,207.74L664.37,203.08L662.78,202.96L661.35,199.1L658.84,197.47L658.47,194.98L659.43,189.23L657.78,187.92L658.45,184.77L662.05,181.41L664.1,172.81L665.72,170.76L670.67,170.61L674.17,172.62L673.66,178.01L671.76,182.55L673.55,185.86L673.87,191.49L673.25,192.94L673.41,202.11L676.13,205.85L675.07,210.95L673.59,212.9L670.8,218.58L669.17,220.01L666.34,218.01L664.52,219.81L667.57,221.39L671.78,222.02L673.11,219.93L676.78,216.99L677.53,214.11L679.39,211.64L678.38,206.97L678.88,204.55L683.89,202.87L685.97,206.61L687.07,203.43L682.67,200.95L679.51,202.03L676.74,201.23L676.16,197.36L678.16,189.92L674.9,183.42L676.46,180.03L681.98,176.12L680.66,180.3L680.89,184.28L682.96,185.3L686.62,184.53L683.5,182.15L682.75,179.47L689.29,175.25L691.79,175.38L695.37,177.93L697.36,180.87L701.3,180.85L699.16,176.63L695.54,174.43L694.69,169.04L694.89,164.56L702.79,163.63L710.91,161.46L711.07,153.69L713.79,149.11L720.49,144.24L729.47,141.4L732.2,138.12L738.34,140.56L743.1,137.1L743.48,134.41L747.53,134.43L749.6,131.84L749.31,128.48L755.02,120.76L757.37,119.46L762.39,122.47L759.77,126.28L761.9,128.35L766.48,129.24L768.07,131.67L776.31,131.62L780.32,135.51L783.66,141.38L782.97,147.41L778.32,153.11L772.91,157.29L768.53,163.37L766.06,164.06L763.94,168.55L767.33,168.24L772.95,165.46L774.03,160.27L779.06,163.23L784.16,164.4L787.57,163.29L795.87,164.36L795.81,167.56L799.33,170.02L808.43,170.24L809.66,168.05L808.81,164.89L811.7,162.79L814.98,165.01L820.64,165.37L823.7,168.08L825.1,175.95L822.29,177.93L826.03,186.12L829.75,189.2L830.83,187.91L833.5,179.6L835.8,183.03L837.61,183.97L842.36,181.85L846.17,184.13L848.32,182.4L852.52,181.26L852.27,174.36L858.83,172.35L867.96,173.95L870.92,176.06L875.74,175.98L878.67,177.27L881.6,182.79L884.22,184.74L886.69,188.45L890.12,188.08L895.72,186.32L901.43,186.78L904.93,188.81L906.68,192.66L906.22,196.76L910.76,199.86L913,197.81L917.76,197.27L918.7,198.11L924.85,198.95L927.01,197.11L928.81,200.68L931.49,202.12L932.29,204.29L934.77,204L935.99,202.37L934.89,198.31L934.63,194.25L940.16,195.34L942.07,196.46L949.62,196.18L951.8,197.83L956.93,199.8L960,202.83L960,229.65L956.05,232.56L953.25,231.73L953.15,233.55L956.4,236.48L956.55,239.16L958.22,241.13L958.85,244.08L957.65,246.2L952.94,244.66L947.38,247.44L945.37,249.02L943,249.63L940.95,251.01L939.71,253.27L934.95,256.69L933.29,258.67L931.27,255.82L928.37,255.94L925.24,257.39L923.61,256.43L920.22,258.5L916.75,258.81L915.76,259.91L915.39,262.71L912.38,267.12L911.89,269L913.25,270.56L915.24,270.96L914.08,272.59L914.14,275.27L915.35,275.87L915.56,278.07L914.79,278.97L913.41,277.94L912.23,278.76L911.28,282.22L912.28,285.04L911.27,286.05L908.73,286.01L906.87,287.62L906.25,289.46L906.39,291.27L902.96,293.53L902.57,296.02L901.61,298.17L897.99,301.76L897.33,299.61L896.97,295.13L896.26,292.94L894.99,284.52L894.81,282.27L895.95,275.84L897.94,273.61L898.6,272.06L898.11,270.65L899.87,270.4L901.89,269.26L904.1,267.24L906.26,263.63L908.95,261.01L911.34,258.22L912.01,256.78L914.6,254.8L916.56,254.07L917.35,251.71L918.01,244.02L915.55,244.87L914.69,249.21L913.05,249.93L908.71,254.97L906.36,252L907.51,249.2L905.47,249.61L904.2,248.47L901.52,249.42L899.92,249.16L897.81,250.95L897.68,252.11L895.61,254.84L893.26,257.01L891.45,259.92L892.22,261.47L893.78,262.41L890.7,263.89L888.96,263.17L887.69,264.6L883.54,264.93L885.31,263.45L883.96,261.55L881.22,261.2L879.05,260.25L877.88,261.74L874.33,262.26L873.37,262.89L870.52,262.04L869.15,263.25L868.15,262.13L861.85,262.36L858.73,264.29L858.01,265.6L855.16,268.32L854.53,270.32L853.34,270.95L849.77,274.52L847.18,278.52L843.13,282.25L840.7,284.16L840.69,285.14L842.27,285.82L844.79,285.65L844.49,288.8L845.75,289.29L846.21,290.57L848.78,290.32L849.76,289.64L849.86,287.03L851.52,287.61L852.55,287.22L854.26,289.33L857.07,292.15L856.45,295.75L857.29,296.57L855.17,300.65L854.6,303.55L854.71,307.49L853.79,311.86L851.66,314.4L850.67,316.4L849.56,317.68L848.9,319.68L847.16,322.47L844.81,324.94L843.05,327.5L842.33,327.93L841.29,329.93L840.35,331.07L836.56,333.62L835.09,334.1L833.28,333.33L832.89,332.13L831.45,332.06L829.76,334.36L828.89,334.73L826.85,336.45L826.02,337.64L825.89,340.68L822.14,343.56L820.18,344.44L819.72,346.42L820.76,346.85L822.33,348.43L822.98,349.95L824.89,352.99L825.26,354.77L825.08,357.05L825.5,357.4L824.57,359.91L822.7,360.17L822.52,360.92L820.57,360.65L818.75,361.78L817.28,362.14L816.78,360L817.91,357.98L817.46,355.65L816.58,354.34L818.32,353.99L817.53,351.23L815.85,350.97L814.53,351.46L813.85,350.42L812.51,350.11L813.51,348.65L814.43,346.15L814.3,345.32L811.38,343.95L808.93,344.51L806.23,345.88L804.4,347.6L804.76,345.76L804.05,344.94L806.07,341.79L804.96,340.73L803.13,340.52L801.28,342.88L798.91,344.02L797.93,345.73L797.1,346.57L795.46,346.91L794.09,346.68L793.49,348.42L794.71,349.92L797.17,350.4L797.57,351.56L797.21,352.8L798.53,353.49L800.99,351.56L802,351.11L804.37,352.37L806.94,352.48L806.72,354.09L805.15,354.04L802.64,355.25L801.05,357.05L800.15,357.68L797.91,360.46L798.89,361.86L800.54,362.69L801.35,364.9L802.32,366.88L802.28,368.01L803.74,368.92L803.61,370.54L802.81,370.98L804.43,372.23L805.01,373.48L802.66,374.59L803.09,375.39L805.18,376.64L804.58,378.6L804.27,381.31L802.93,381.54L800.74,385.13L799.06,388.64L798.77,389.61L797.4,390.7L797.09,391.57L796.16,392.59L794.9,392.45L794.82,393.57L793.68,394.76L793.24,394.75L790.77,396.67L790.59,397.35L788,398.01L787.19,397.73L786.28,398.3L785.74,397.9L784.71,399.23L783.72,398.85L782.8,399.43L779.48,400.83L778.52,400.52L777.61,401.35L775.39,401.84L773.85,402.84L773.81,403.35L774.7,404.32L773.66,405.05L772.43,403.19L773.15,401.57L772.12,401.41L771.06,401.73L770.75,401.16L768.87,400.96L766.43,402.13L766.28,402.79L764.47,403.06L764.68,403.71L764.05,404.98L762.62,405.97L761.66,408.72L762.37,410.03L764,411.59L763.94,412.22L765.81,414.52L768.08,416.1L769.8,418.44L770.19,418.74L770.89,420.56L771.48,422.93L771.39,424.51L771.8,425.4L771.25,426.25L771.2,428.76L770.19,429.87L768.72,430.91L766.03,432.36L764.83,432.27L764.76,433.13L764.02,433.93L764.19,434.41L761.34,435.9L760.86,436.68L759.71,437.27L759.52,436.68L759.59,434.51L760.07,433.26L759.1,432.98L758.03,431.98L756.09,431.8L756.59,431.03L756.09,430.33L755.07,430.97L755,429.48L754.03,427.98L751.26,426.13L750.52,426.32L748.97,426.06L749.23,424.1L748.42,423.85L746.71,424.31L746.91,425.15L746.57,426.13L746.64,427.54L745.67,429.47L745.3,431.03L744.44,432.58L744.43,434.16L745.05,435.57L745.93,435.3L746.41,435.84L746.56,437.03L747.41,438.12L747.88,440.34L748.23,441.06L749.38,441.91L750.66,441.89L751.46,442.94L752.91,443.76L753.42,444.59L754.62,445.49L755.78,447.3L755.92,448.52L755.63,450.19L755.88,450.85L755.84,452.42L756.83,453.36L758.1,456.3L756.52,456.38L753.94,455.3L750.12,452.55L750.13,451.57L748.57,449.66L748.3,447.83L747.61,445.32L747.58,444.26L746.98,443.03L745.86,441.86L745.92,441.25L744.14,439.15L742.88,437.92L741.97,437.7L741.98,436.77L742.83,433.88L742.57,431.61L743.13,430.77L743.31,429.12L743.03,428.72L743.19,427.4L742.87,424.83L741.99,423.27L740.83,420.17L740.56,417.36L740.22,416.96L740.32,415.52L739.67,415.56L739.14,414.06L738.59,413.35L738.16,414.85L737.66,415.45L735.37,416.55L734.37,417.78L733.18,417.52L732.23,416.21L731.24,416.66L732.24,412.64L731.82,410.87L730.85,408.92L729.88,408.55L730.66,407.38L728.97,405.63L728.01,405.58L726.95,404.46L725.48,402.45L725.36,400.99L724.51,398.63L723.76,397.78L722.52,398.36L721.69,396.92L721.16,397.91L721.57,399.34L720.42,400.61L719.5,400.13L717.47,401.08L715.34,401.17L714.53,400.58L713.81,401.08L712.27,401.52L711.63,402.27L711.93,403.8L711.33,404.91L710.08,406.02L708.2,406.67L706.06,408.27L704.28,410.62L703.08,411.24L701.86,412.53L699.63,413.96L699.36,415.46L698.03,416.1L696.64,416.28L695.94,417.68L695.06,417.31L694.12,417.82L693.48,419.58L693.77,420.95L693.63,421.95L694.25,424.29L693.94,426.13L692.96,428.04L692.68,429.17L692.93,430.2L692.9,432.57L691.71,432.61L690.66,434.3L690.61,435.42L689.12,435.86L688.51,436.44L688.16,437.81L686.71,438.63L685.25,437.75L684.14,436.41L683.53,434.93L683.59,433.65L682.46,431.32L681.93,429.75L680.52,427.85L679.39,425.07L679.12,423.45L678.35,421.18L677.2,419.57L677.15,418.68L675.94,416.86L675.57,415.74L675.08,412.5L674.32,409.52L674.16,407.78L673.78,406.27L674.35,404.19L674.17,402.61L673.45,400.95L673.57,399.28L672.89,399.3L672.1,400.59L672.68,401.43L672.04,402.5L669.4,403.69L668.58,403.69L667.01,402.68L664.02,399.52L667.14,398.43L667.34,397.28L665.77,397.89L664.63,397.63L663.04,396.65L662.45,395.54L661.43,394.73L660.45,394.84L659.49,393.78L659.12,392.07L657.88,391.77L657.86,390.69L657.14,389.66L655.15,390.31L652.74,390.45L652.42,390.82L649.92,390.22L649.31,390.74L646.86,390.61L646.17,390.96L643.76,391.06L641.77,390.53L638.55,389.94L637.46,390.13L636.79,389.72L634.12,389.43L632.89,389.02L631.95,385.71L631.5,385.15L630.28,384.82L628.4,385.49L626.39,386.75L625.72,386.89L624.66,386.33L623.21,386.24L622.55,385.59L620.51,384.45L619.94,383.57L618.75,382.95L617.78,382.88L616.74,382.02L616.17,380.22L615.13,378.94L615.07,378.1L613.29,375.67L612.15,376.23L610.45,375.09L610.45,375.95L609.21,376.51L607.95,376.28L607.92,377.5L608.49,379.45L610.42,383.54L611.75,384.88L613.3,385.93L613.9,387.49L613.42,388.07L614.82,391.1L616.01,388.46L616.7,387.95L617.45,388.69L617.29,389.81L617.57,391.46L616.83,393.29L618.05,393.54L618.42,394.33L620.4,393.84L623.72,394.06L625.06,393.48L625.99,391.92L626.93,391.24L628.06,389.89L629.18,389.01L629.77,387.79L630.48,387.43L630.33,391.3L631.04,392.91L632.59,394.51L636.21,395.33L638.76,398.42L639.53,398.62L639.47,399.45L638.32,401.52L637.05,402.63L635.93,404.64L634.3,405.1L633.91,406.91L634.16,408.58L632.47,408.9L631.08,409.79L630.8,410.97L630.05,411.57L627.94,411.88L626.84,414.12L624.18,414.22L622.96,414.9L620.22,415.71L619.54,416.2L619.13,417.13L619.25,417.97L617.61,418.85L614.74,419.68L613.78,420.19L611.6,420.78L610.8,421.28L609.78,422.4L607.97,422.4L606.42,423.47L604.77,424L601.75,424.35L600.1,425.78L598.98,425.78L597.15,426.33L595.93,425.72L595.29,424.55L595.42,423.53L594.9,422.51L594.72,421.01L593.91,417.97L594.24,416.92L593.86,414.97L593.02,413.89L592.78,413.02L591.33,411.76L589.95,409.53L589.64,408.39L588.69,406.49L586.88,405.04L585.64,404.32L584.25,402.06L583.97,400.42L584.26,398.95L583.84,397.54L582.57,395.13L581.12,393.75L580.11,393.44L579.15,391.89L579.06,390.5L578.03,389.14L576.67,386.63L574.88,384.13L573.82,382.31L572.31,381.97L572.75,380.88ZM839.33,475.49L839.35,476.73L838.51,477.17L838.14,476.3L838.24,475.51ZM766.33,476.3L767.11,476.85L768.79,476.99L769.81,478.4L774.47,478.82L775.3,477.54L776.41,478.07L777.44,478.02L778.9,478.67L780.1,478.76L780.78,480.45L782,480.89L784.19,480.66L785.18,481.37L785.03,482.74L785.56,483.72L782.01,482.42L780.48,482.75L777.36,482.47L774.95,482.05L773.44,481.35L771.42,480.85L769.98,480.75L769.2,481.1L767.78,480.91L766.09,480.23L764.35,480.08L764.05,479.1L761.29,478.37L762.32,476.59L762.87,476.05L764.87,476.54L765.46,476.02ZM838.76,477.46L838.28,478.46L837.49,478.34L837.78,476.75ZM783.59,479.24L782.59,479.55L780.7,479.34L780.98,478.69L783.93,478.62ZM830.2,481.65L829.56,481.29L830.03,480.22L830.83,479.32L831.18,480.14ZM849.43,482.39L848.79,482.74L847.16,482.36L848.02,480.68L848.79,480.14L850.05,480.01L850.64,480.83ZM818.14,480.76L817.26,481.52L815.58,481.16L817.63,480.5ZM787.86,482.07L788.55,482.75L787.3,483.8L785.27,481.97ZM795.31,482.51L797.3,482.56L797.35,483.67L795.29,483.83L792.16,484.61L791.44,484.36L791.56,483.08L792.44,482.64L793.51,482.8L794.98,481.98ZM807.42,483.3L804.4,484.07L802.76,484.17L799.49,483.53L799.78,482.85L801.63,482.3L803.85,483.21L805.24,482.88L806.03,483.33L806.94,482.73ZM791.04,483.3L790.34,484.15L789.54,483.66L789.5,482.83L790.4,482.2L791.29,482.69ZM819.46,482.79L818.44,483.58L817.02,484.23L814.42,485.09L811.81,487.45L810.29,487.98L809.57,486.96L809.89,486.01L810.61,485.35L812.2,484.77L813.81,483.39L815.48,482.98L817.65,482.89L818.58,482.5ZM800.03,485.36L801.34,486.17L802.22,487.15L801.17,487.85L800.39,487.59L798.94,486.44L797.56,486.26L797.83,485.38Z" fill="#dadada" stroke="#fff" stroke-width="0.5" id="asia" data-name="Asia"/>
</svg>