<?xml version="1.0" standalone="no"?>
<svg id="Nederlands_verkeersbord_B2_2023" width="832" height="832" xmlns="http://www.w3.org/2000/svg" version="1.1">
	<g id="verkeersbord" transform="rotate(45,217.976,498.024)">
		<path id="vlak_zwart" fill="#2a2d2f" d="M 0,20 A 20,20 0 0 1 20,0 h 560 a 20,20 0 0 1 20,20 v 560 a 20,20 0 0 1 -20,20 H 20 A 20,20 0 0 1 0,580 Z"/>
		<rect id="vierkant_wit" fill="#f7fbf5" width="560" height="560" x="20" y="20"/>
		<rect id="vierkant_zwart" fill="#2a2d2f" width="380" height="380" x="110" y="110"/>
		<rect id="vierkant_oranje" fill="#f0ca00" width="350" height="350" x="125" y="125"/>
		<rect id="streep_1_zwart" fill="#2a2d2f" width="24" height="580" x="246" y="10"/>
		<rect id="streep_2_zwart" fill="#2a2d2f" width="24" height="580" x="288" y="10"/>
		<rect id="streep_3_zwart" fill="#2a2d2f" width="24" height="580" x="330" y="10"/>
	</g>
</svg>