<?xml version="1.0" standalone="no"?>
<svg id="Nederlands_verkeersbord_J22_2023" width="672" height="587" xmlns="http://www.w3.org/2000/svg" version="1.1">
	<path id="bord_rood" style="fill:#c1121c;stroke:#c1121c;stroke-width:40;stroke-linejoin:round" d="M 20.641,567 651.359,567 336,20.782 Z"/>
	<path id="bies_wit" style="fill:#f7fbf5;stroke:#f7fbf5;stroke-width:20;stroke-linejoin:round" d="M 20.641,567 651.359,567 336,20.782 Z"/>
	<path id="driehoek_rood" fill="#c1121c" d="M 20.641,567 651.359,567 336,20.782 Z"/>
	<path id="driehoek_wit" fill="#f7fbf5" d="M 137.208,499.7 534.792,499.7 336,155.382 Z"/>
	<path id="symbool_zwart" fill="#2a2d2f" d="m 384.92688,406.53551 h 23.36938 l 25.56527,78.45892 h -44.07805 l -6.3793,-36.48059 16.17264,-12.22965 z m -58.95559,0 h 25.45307 l 6.61972,78.45892 h -22.03902 -22.03903 l 5.32143,-62.91139 z m 137.41451,78.45892 h 42.74769 L 463.3858,406.53551 h -32.61776 z m -254.77111,0 H 165.867 l 42.74769,-78.45892 h 32.61776 z m 73.61034,0 h -44.07805 l 25.56527,-78.45892 h 32.16896 z m 54.79141,-219.43975 c -5.36951,0 -10.17802,2.43631 -13.3837,6.25107 l -49.73606,50.89011 6.33121,6.60369 39.62215,-30.35775 c 0.78539,16.89391 4.21547,34.58924 4.21547,34.58924 l -31.15917,112.23073 h 11.62057 l 36.70499,-84.50163 13.20739,36.17606 29.92499,44.62301 9.50483,-7.91802 -23.57775,-46.73876 -11.36412,-57.04501 -0.25646,-30.63023 8.71944,6.33121 6.05873,30.64626 8.71944,0.52894 -2.64468,-38.03535 -28.51449,-29.57236 c -6.33121,-5.8183 -13.99278,-4.07121 -13.99278,-4.07121 m 0,-2.5966 c 9.63306,0 17.45491,-7.82185 17.45491,-17.45491 0,-9.63305 -7.82185,-17.4549 -17.45491,-17.4549 -9.63306,0 -17.45491,7.82185 -17.45491,17.4549 0,9.63306 7.82185,17.45491 17.45491,17.45491"/>
</svg>