<?xml version="1.0" standalone="no"?>
<svg id="Nederlands_verkeersbord_J23_2023" width="672" height="587" xmlns="http://www.w3.org/2000/svg" version="1.1">
	<path id="bord_rood" style="fill:#c1121c;stroke:#c1121c;stroke-width:40;stroke-linejoin:round" d="M 20.641,567 651.359,567 336,20.782 Z"/>
	<path id="bies_wit" style="fill:#f7fbf5;stroke:#f7fbf5;stroke-width:20;stroke-linejoin:round" d="M 20.641,567 651.359,567 336,20.782 Z"/>
	<path id="driehoek_rood" fill="#c1121c" d="M 20.641,567 651.359,567 336,20.782 Z"/>
	<path id="driehoek_wit" fill="#f7fbf5" d="M 137.208,499.7 534.792,499.7 336,155.382 Z"/>
	<path id="symbool_zwart" fill="#2a2d2f" d="m 335.72595,263.96351 c -6.63575,0 -12.58228,2.99841 -16.52526,7.72854 l -61.42075,62.87055 7.83787,8.14543 48.90259,-37.50426 c 0.97774,20.87668 5.22526,42.73145 5.22526,42.73145 l -38.48415,138.64873 h 14.3454 l 45.32827,-104.39943 16.31689,44.68764 39.12528,58.39697 11.73277,-9.78093 -31.30343,-61.01057 -14.02483,-70.45479 -0.32057,-37.84098 10.75505,7.82475 7.50128,37.84098 10.77107,0.65741 -3.26979,-46.98055 -35.21435,-36.5422 c -7.82185,-7.16734 -17.2786,-5.01874 -17.2786,-5.01874 m 0,-3.20687 c 11.89306,0 21.55817,-9.65266 21.55817,-21.56615 0,-11.89747 -9.66511,-21.55012 -21.55817,-21.55012 -11.89306,0 -21.55817,9.65265 -21.55817,21.55012 0,11.91349 9.66511,21.56615 21.55817,21.56615"/>
</svg>