<?xml version="1.0" standalone="no"?>
<svg id="Nederlands_verkeersbord_J21_2023" width="672" height="587" xmlns="http://www.w3.org/2000/svg" version="1.1">
	<path id="bord_rood" style="fill:#c1121c;stroke:#c1121c;stroke-width:40;stroke-linejoin:round" d="M 20.641,567 651.359,567 336,20.782 Z"/>
	<path id="bies_wit" style="fill:#f7fbf5;stroke:#f7fbf5;stroke-width:20;stroke-linejoin:round" d="M 20.641,567 651.359,567 336,20.782 Z"/>
	<path id="driehoek_rood" fill="#c1121c" d="M 20.641,567 651.359,567 336,20.782 Z"/>
	<path id="driehoek_wit" fill="#f7fbf5" d="M 137.208,499.7 534.792,499.7 336,155.382 Z"/>
	<path id="symbool_zwart" fill="#2a2d2f" d="M 358.35742 265.24609 C 357.17461 265.27208 355.97742 265.41697 354.7793 265.68945 C 345.1783 267.88534 339.18303 277.43847 341.37891 287.02344 C 343.5748 296.62444 353.12792 302.61777 362.71289 300.42188 C 372.29786 298.226 378.29314 288.67286 376.11328 279.08789 C 374.19188 270.70104 366.63711 265.06421 358.35742 265.24609 z M 372.74023 303.01172 C 368.76444 302.97024 365.94727 304.32812 365.94727 304.32812 C 360.59379 305.54629 356.36277 309.05771 354.05469 313.59375 L 317.46094 373.34766 L 325.2832 378.47656 L 356.45898 341.45117 C 361.09118 358.08863 368.52734 374.90234 368.52734 374.90234 L 363.0625 493.65625 L 374.61914 491.02734 L 391.91406 398.5918 L 413.29492 431.57812 L 466.14062 460.83008 L 473.80273 450.7793 L 426.77539 417.98633 L 402.49219 363.82617 L 395.26367 333.4043 L 405.37695 337.73242 L 418.39258 366.82227 L 427.17578 365.36523 L 415.89258 328.13086 L 380.78906 305.19336 C 377.928 303.56448 375.12571 303.03661 372.74023 303.01172 z M 267.30859 315.54492 C 258.18844 315.54492 250.79883 322.93494 250.79883 332.03906 C 250.79883 341.1592 258.18844 348.54687 267.30859 348.54688 C 276.42874 348.54688 283.81836 341.1592 283.81836 332.03906 C 283.81836 322.93494 276.42874 315.54492 267.30859 315.54492 z M 273.33398 351.81055 C 272.75371 351.81781 272.42188 351.86523 272.42188 351.86523 C 268.27053 352.15374 264.69555 354.28658 262.43555 357.41211 L 227.52539 402.35547 L 235.01172 408.10938 L 259.23047 383.02539 C 261.98735 396.0244 266.08984 405.03125 266.08984 405.03125 L 253.05859 492.35352 L 263.50977 491.72852 L 284.31445 432.21484 L 293.98047 452.23438 L 339.85352 467.89453 L 340.0625 452.57227 L 308.14844 441.14258 L 295.80664 401.69727 L 292.95508 376.82227 L 299.28516 377.0293 L 314.06445 393.23438 L 321.17969 384.70703 L 303.58008 366.35547 L 282.95312 355.24805 C 279.04621 352.13453 275.07482 351.78876 273.33398 351.81055 z "/>
</svg>