<?xml version="1.0" standalone="no"?>
<svg id="Nederlands_verkeersbord_C14_2023" width="600" height="600" xmlns="http://www.w3.org/2000/svg" version="1.1">
	<circle id="witte_cirkel_met_rode_rand" cx="300" cy="300" r="256.35" fill="#f7fbf5" stroke="#c1121c" stroke-width="87.3"/>
	<circle id="bies_wit" cx="300" cy="300" r="285" fill="none" stroke="#f7fbf5" stroke-width="10"/>
	<path id="symbool_zwart" fill="#2a2d2f" d="m 254.13958,184.9043 c -12.91444,0 -16.63672,16.18359 -16.63672,16.18359 -3.98635,11.3834 -14.01843,39.79814 -23.31836,66.13086 -5.56133,-1.5181 -11.40834,-2.34375 -17.45117,-2.34375 -36.51002,0 -66.11131,29.58373 -66.11133,66.09375 0,36.51002 29.60131,66.1094 66.11133,66.10937 36.51002,0 66.10938,-29.59935 66.10938,-66.10937 0,-24.76256 -13.62417,-46.3253 -33.77735,-57.64648 2.56717,-7.20443 3.0254,-8.49802 5.4668,-15.35938 l 71.66992,80.97461 h 31.4668 c 3.93675,32.75133 31.80329,58.14453 65.61523,58.14453 36.49384,0 66.09375,-29.59935 66.09375,-66.10937 0,-36.51002 -29.59991,-66.10938 -66.09375,-66.10938 -6.71063,0 -13.18425,1.00617 -19.28711,2.86524 -6.76033,-14.48649 -11.14009,-23.85663 -17.26171,-36.99024 l 7.90039,-16.80273 16.46679,0.0664 v -12.91406 h -55.80078 c -9.83958,0 -9.61301,12.6875 0,12.6875 l 21.56641,0.0879 -5.01758,10.68945 h -105.4375 c 1.22909,-3.46093 5.54102,-15.58398 5.54102,-15.58398 2.83212,-8.98185 11.15039,-7.88086 11.15039,-7.88086 h 19.69531 V 184.9043 Z m -13.54297,56.00195 103.48829,0.19336 -35.74219,76.1543 -67.75195,-76.32618 c 0.003,-0.008 0.003,-0.0134 0.006,-0.0215 z m 117.28907,8.65625 c 3.59483,7.68235 7.59666,16.25653 11.51367,24.64453 -17.06806,10.21099 -29.13326,27.89838 -31.69727,48.53906 h -14.22265 z m -161.24024,31.43555 c 4.19071,0 8.25768,0.52356 12.14649,1.49609 -8.62937,24.42303 -17.00782,48.12695 -17.00782,48.12695 -3.72221,9.40262 11.15029,14.64536 14.66211,5.67969 1.35297,-3.47012 8.84657,-24.40013 17.07032,-47.4414 13.84169,8.86608 23.02148,24.36899 23.02148,42.03124 0,27.56055 -22.33204,49.89454 -49.89258,49.89454 -27.56053,0 -49.89453,-22.33397 -49.89453,-49.89454 0,-27.56051 22.334,-49.89257 49.89453,-49.89257 z m 206.54102,0 c 27.56054,0 49.89453,22.33204 49.89453,49.89257 0,27.56055 -22.33399,49.89454 -49.89453,49.89454 -24.81995,0 -45.39069,-18.11625 -49.23828,-41.84766 h 46.55664 c 18.38447,0 9.20703,-16.10352 9.20703,-16.10352 -2.68153,-5.74139 -12.0293,-25.78103 -18.81055,-40.30859 3.93038,-0.99492 8.04504,-1.52734 12.28516,-1.52734 z m -26.92383,7.89453 c 5.72553,12.24329 11.28217,24.09109 15.91602,33.85351 h -38.21289 c 2.33195,-14.20342 10.6575,-26.37702 22.29687,-33.85351 z" />
</svg>