<?xml version="1.0" standalone="no"?>
<svg id="Nederlands_verkeersbord_C15_2023" width="600" height="600" xmlns="http://www.w3.org/2000/svg" version="1.1">
	<circle id="witte_cirkel_met_rode_rand" cx="300" cy="300" r="256.35" fill="#f7fbf5" stroke="#c1121c" stroke-width="87.3"/>
	<circle id="bies_wit" cx="300" cy="300" r="285" fill="none" stroke="#f7fbf5" stroke-width="10"/>
	<path id="symbool_bromfiets_zwart" fill="#2a2d2f" d="M 266.05273 116.93555 C 263.8439 116.9413 254.68619 117.77989 249.51758 130.83594 L 227.75195 183.10742 C 224.7214 182.38657 221.58308 181.95051 218.36133 181.83008 L 218.95703 173.2168 C 218.95703 173.2168 202.98373 171.46919 196.38086 175.64453 L 199.36328 184.92969 C 181.121 191.859 168.15234 209.49887 168.15234 230.17188 C 168.15234 256.89089 189.8064 278.54297 216.52539 278.54297 C 243.24439 278.54297 264.89844 256.89089 264.89844 230.17188 C 264.89844 212.85263 255.79366 197.66291 242.11523 189.11328 L 249.49023 171.86719 C 256.98084 183.75791 283.20703 226.69727 283.20703 226.69727 C 290.84565 240.58273 301.60938 238.49414 301.60938 238.49414 L 337.28906 238.35352 C 341.17738 261.17255 361.03219 278.54297 384.96094 278.54297 C 411.67993 278.54297 433.33203 256.89089 433.33203 230.17188 C 433.33203 203.45289 411.67993 181.7832 384.96094 181.7832 C 360.91456 181.7832 340.97974 199.33854 337.23047 222.32617 L 300.2168 222.18164 L 290.8457 208.63672 L 301.96484 176.68945 L 287.36719 153.41797 L 257.62305 152.85156 L 265.8457 133.62109 L 288.06641 133.62109 L 288.06641 116.95117 L 266.54297 116.95117 C 266.54297 116.95117 266.36828 116.93473 266.05273 116.93555 z M 339.4668 153.06836 C 328.70476 153.06836 331.82812 161.40234 331.82812 161.40234 C 331.82813 161.40234 340.50216 176.67954 342.58984 181.55078 C 344.67751 186.40584 351.97697 189.19077 357.17188 182.58789 C 362.38297 175.98501 373.83984 174.5918 373.83984 174.5918 L 419.6875 172.16406 L 418.99219 153.06836 L 339.4668 153.06836 z M 216.52539 197.99023 C 218.1825 197.99023 219.81079 198.11584 221.40039 198.35742 L 208.88086 228.42383 C 208.88086 228.42383 205.75649 235.72285 212.35938 238.15039 C 218.96224 240.57791 223.81836 231.90234 223.81836 231.90234 L 235.63086 204.2793 C 243.5567 210.13936 248.69727 219.54969 248.69727 230.16406 C 248.69727 247.93357 234.2949 262.33594 216.52539 262.33594 C 198.75589 262.33594 184.35352 247.93357 184.35352 230.16406 C 184.35352 212.39456 198.75589 197.99023 216.52539 197.99023 z M 384.96094 197.99023 C 402.73045 197.99023 417.13281 212.39456 417.13281 230.16406 C 417.13281 247.93357 402.73045 262.33594 384.96094 262.33594 C 369.99776 262.33594 357.42356 252.12295 353.82422 238.28711 L 387.39844 238.1543 C 387.39844 238.1543 394.33984 236.76305 394.33984 229.48047 C 394.33984 222.18169 386.70117 222.52148 386.70117 222.52148 L 353.73828 222.39258 C 357.21498 208.37873 369.87175 197.99023 384.96094 197.99023 z"/>
	<path id="symbool_fiets_zwart" fill="#2a2d2f" d="M 265.33203 296.84375 C 255.18497 296.84375 252.27148 309.56445 252.27148 309.56445 C 249.13414 318.50877 241.25092 340.83636 233.94336 361.52734 C 229.57359 360.3344 224.97881 359.68555 220.23047 359.68555 C 191.53709 359.68555 168.28125 382.94193 168.28125 411.61914 C 168.28125 440.31251 191.53709 463.56836 220.23047 463.56836 C 248.92385 463.56836 272.17969 440.31251 272.17969 411.61914 C 272.17969 392.16511 261.47084 375.21695 245.62891 366.32031 C 247.64744 360.65565 248.00824 359.63884 249.92773 354.24414 L 306.24805 417.86914 L 330.96289 417.86914 C 334.05307 443.61291 355.96371 463.56836 382.52539 463.56836 C 411.21877 463.56836 434.47461 440.31252 434.47461 411.61914 C 434.47461 382.94194 411.21877 359.68555 382.52539 359.68555 C 377.25783 359.68555 372.17489 360.47678 367.38281 361.93555 C 362.08397 350.58523 358.16091 342.18482 353.81836 332.86914 L 360.03125 319.6582 L 372.96094 319.71094 L 372.96094 309.56445 L 329.12109 309.56445 C 321.38537 309.56445 321.56339 319.5332 329.12109 319.5332 L 346.07031 319.60156 L 342.12891 328.00195 L 259.25781 328.00195 C 260.22495 325.27844 263.61523 315.74609 263.61523 315.74609 C 265.84856 308.70625 272.38672 309.56445 272.38672 309.56445 L 287.85938 309.56445 L 287.85938 296.84375 L 265.33203 296.84375 z M 254.69141 340.84766 L 336.03125 340.99609 L 307.9375 400.85352 L 254.6875 340.85547 C 254.68862 340.8523 254.69028 340.85082 254.69141 340.84766 z M 346.86328 347.66016 C 349.77246 353.88423 352.7472 360.25439 355.9082 367.02539 C 342.49337 375.04734 333.00569 388.94474 330.99023 405.16016 L 319.82422 405.16016 L 346.86328 347.66016 z M 220.16016 372.3418 C 223.45506 372.3418 226.65307 372.75383 229.71094 373.51953 C 222.9287 392.71607 216.34375 411.3418 216.34375 411.3418 C 213.41453 418.73766 225.10036 422.86461 227.85156 415.80859 C 228.91663 413.08329 234.80866 396.63146 241.27344 378.51953 C 252.15427 385.48907 259.37305 397.67659 259.37305 411.55469 C 259.37305 433.20824 241.81371 450.76758 220.16016 450.76758 C 198.50661 450.76758 180.94727 433.20824 180.94727 411.55469 C 180.94727 389.90115 198.50661 372.3418 220.16016 372.3418 z M 382.45898 372.3418 C 404.11253 372.3418 421.67188 389.90115 421.67188 411.55469 C 421.67187 433.20824 404.11253 450.76758 382.45898 450.76758 C 362.95581 450.76758 346.78136 436.52025 343.75977 417.86914 L 380.35352 417.86914 C 394.80541 417.86914 387.58594 405.23047 387.58594 405.23047 C 385.48109 400.71534 378.1148 384.92945 372.79883 373.54492 C 375.88954 372.76153 379.12499 372.3418 382.45898 372.3418 z M 361.29688 378.55273 C 365.80439 388.19076 370.20389 397.57167 373.80859 405.16016 L 343.77539 405.16016 C 345.60734 394.0001 352.15078 384.43103 361.29688 378.55273 z"/>
</svg>